<?xml version="1.0" standalone="no"?>
<!DOCTYPE svg PUBLIC "-//W3C//DTD SVG 1.1//EN" "http://www.w3.org/Graphics/SVG/1.1/DTD/svg11.dtd" >
<svg>
<metadata>
Created by FontForge 20090622 at Thu May  4 16:34:27 2017
 By deploy user
(c) OurType, 2005. All rights reserved. SansaPro is a design by Fred Smeijers
</metadata>
<defs>
<font id="SansaPro-Normal" horiz-adv-x="625" >
  <font-face 
    font-family="Sansa Pro Normal"
    font-weight="400"
    font-stretch="normal"
    units-per-em="1000"
    panose-1="2 0 6 3 8 0 0 2 0 4"
    ascent="800"
    descent="-200"
    x-height="547"
    cap-height="750"
    bbox="-211 -219 1281 1031"
    underline-thickness="21"
    underline-position="-113"
    unicode-range="U+0020-U+FB02"
  />
<missing-glyph horiz-adv-x="500" 
d="M0 0v700h500v-700h-500zM250 395l170 255h-340zM280 350l170 -255v510zM80 50h340l-170 255zM50 605v-510l170 255z" />
    <glyph glyph-name="fi" unicode="fi" horiz-adv-x="633" 
d="M453 0v469h-250v-469h-86v469h-86v78h86v23q0 87 48.5 133.5t131.5 46.5h62v-78h-62q-52 0 -73 -24t-21 -78v-23h336v-547h-86zM453 656v94h86v-94h-86z" />
    <glyph glyph-name="fl" unicode="fl" horiz-adv-x="633" 
d="M117 0v469h-86v78h86v23q0 87 48.5 133.5t131.5 46.5h242v-750h-86v672h-156q-52 0 -73 -24t-21 -78v-23h141v-78h-141v-469h-86z" />
    <glyph glyph-name="f_f" unicode="ff" horiz-adv-x="680" 
d="M453 0v469h-250v-469h-86v469h-86v78h86v23q0 87 48.5 133.5t131.5 46.5h62v-78h-62q-52 0 -73 -24t-21 -78v-23h250v23q0 87 48.5 133.5t131.5 46.5h62v-78h-62q-52 0 -73 -24t-21 -78v-23h141v-78h-141v-469h-86z" />
    <glyph glyph-name="f_f_i" unicode="ffi" horiz-adv-x="969" 
d="M453 0v469h-250v-469h-86v469h-86v78h86v23q0 87 48.5 133.5t131.5 46.5h62v-78h-62q-52 0 -73 -24t-21 -78v-23h250v23q0 87 48.5 133.5t131.5 46.5h62v-78h-62q-52 0 -73 -24t-21 -78v-23h336v-547h-86v469h-250v-469h-86zM789 656v94h86v-94h-86z" />
    <glyph glyph-name="f_f_l" unicode="ffl" horiz-adv-x="969" 
d="M453 0v469h-250v-469h-86v469h-86v78h86v23q0 87 48.5 133.5t131.5 46.5h62v-78h-62q-52 0 -73 -24t-21 -78v-23h250v23q0 87 48.5 133.5t131.5 46.5h242v-750h-86v672h-156q-52 0 -73 -24t-21 -78v-23h141v-78h-141v-469h-86z" />
    <glyph glyph-name="f_t" unicode="ft" horiz-adv-x="734" 
d="M633 0q-188 0 -188 188v281h-242v-469h-86v469h-86v78h86v23q0 87 48.5 133.5t131.5 46.5h62v-78h-62q-52 0 -73 -24t-21 -78v-23h242v125h86v-125h156v-78h-156v-266q0 -74 25.5 -99.5t91.5 -25.5h55v-78h-70z" />
    <glyph glyph-name="f_j" unicode="fj" horiz-adv-x="633" 
d="M281 -188v79h39q74 0 103.5 38t29.5 118v422h-250v-469h-86v469h-86v78h86v23q0 87 48.5 133.5t131.5 46.5h62v-78h-62q-52 0 -73 -24t-21 -78v-23h336v-484q0 -130 -56 -190.5t-178 -60.5h-24zM453 656v94h86v-94h-86z" />
    <glyph glyph-name="f_b" unicode="fb" horiz-adv-x="949" 
d="M453 0v672h-156q-52 0 -73 -24t-21 -78v-23h141v-78h-141v-469h-86v469h-86v78h86v23q0 87 48.5 133.5t131.5 46.5h242v-305l39 39q71 71 156 71q69 0 113 -46.5t44 -141.5v-86q0 -124 -86.5 -202.5t-202.5 -78.5h-149zM570 391l-31 -32v-281h63q89 0 146 55.5t57 147.5
v86q0 110 -86 110q-60 0 -149 -86z" />
    <glyph glyph-name="f_h" unicode="fh" horiz-adv-x="973" 
d="M453 0v672h-156q-52 0 -73 -24t-21 -78v-23h141v-78h-141v-469h-86v469h-86v78h86v23q0 87 48.5 133.5t131.5 46.5h242v-305l39 39q71 71 156 71q149 0 149 -188v-367h-85v367q0 110 -87 110q-25 0 -56 -17.5t-44.5 -30l-40.5 -38.5l-31 -32v-359h-86z" />
    <glyph glyph-name="f_k" unicode="fk" horiz-adv-x="898" 
d="M453 0v672h-156q-52 0 -73 -24t-21 -78v-23h141v-78h-141v-469h-86v469h-86v78h86v23q0 87 48.5 133.5t131.5 46.5h242v-414h55l179 211h98v-8l-207 -238l215 -293v-8h-98l-187 258h-55v-258h-86z" />
    <glyph glyph-name=".notdef" horiz-adv-x="500" 
d="M0 0v700h500v-700h-500zM250 395l170 255h-340zM280 350l170 -255v510zM80 50h340l-170 255zM50 605v-510l170 255z" />
    <glyph glyph-name=".null" horiz-adv-x="0" 
 />
    <glyph glyph-name="nonmarkingreturn" horiz-adv-x="333" 
 />
    <glyph glyph-name="space" unicode=" " horiz-adv-x="266" 
 />
    <glyph glyph-name="exclam" unicode="!" horiz-adv-x="273" 
d="M105 219l-11 531h86l-12 -531h-63zM94 0v94h86v-94h-86z" />
    <glyph glyph-name="quotedbl" unicode="&#x22;" horiz-adv-x="445" 
d="M273 547l-7 203h86l-8 -203h-71zM102 547l-8 203h86l-8 -203h-70z" />
    <glyph glyph-name="numbersign" unicode="#" 
d="M156 0v172h-125v78h125v250h-125v78h125v172h78v-172h157v172h78v-172h125v-78h-125v-250h125v-78h-125v-172h-78v172h-157v-172h-78zM234 250h157v250h-157v-250z" />
    <glyph glyph-name="dollar" unicode="$" 
d="M281 755v112h78v-109q41 -1 89.5 -10.5t71.5 -20.5v-79h-8q-84 28 -164 28h-24q-148 0 -148 -121q0 -28 8 -48t25 -33t33.5 -20.5t42.5 -15.5l98 -28q34 -9 59.5 -21.5t52.5 -35t41.5 -60.5t14.5 -90q0 -89 -55.5 -144t-155.5 -65v-119h-78v117q-45 1 -104 11.5t-84 19.5
v82h8q107 -31 188 -31h31q156 0 156 129q0 58 -26.5 84.5t-82.5 40.5l-102 27q-164 46 -164 200q0 82 53.5 136t145.5 64z" />
    <glyph glyph-name="percent" unicode="%" horiz-adv-x="937" 
d="M254 0v12l375 738h55v-12l-375 -738h-55zM234 320q-87 0 -127.5 52.5t-40.5 162.5q0 111 40.5 165t127.5 54q86 0 127 -54t41 -165q0 -110 -41 -162.5t-127 -52.5zM234 379q52 0 73 35.5t21 120.5q0 86 -21.5 123t-72.5 37q-52 0 -72.5 -36.5t-20.5 -123.5
q0 -83 20.5 -119.5t72.5 -36.5zM699 -4q-87 0 -127.5 52t-40.5 163t40.5 165t127.5 54q168 0 168 -219q0 -110 -41 -162.5t-127 -52.5zM699 55q52 0 73 35.5t21 120.5q0 86 -21.5 123t-72.5 37q-52 0 -73 -36.5t-21 -123.5q0 -83 21 -119.5t73 -36.5z" />
    <glyph glyph-name="ampersand" unicode="&#x26;" horiz-adv-x="656" 
d="M313 -8q-243 0 -243 219q0 62 28.5 111.5t85.5 72.5q-41 20 -65.5 64.5t-24.5 95.5q0 92 55.5 147.5t163.5 55.5h31q100 0 164 -31v-79h-8q-82 28 -156 28h-31q-62 0 -93.5 -28t-31.5 -93q0 -50 31 -83.5t78 -33.5h312v-83h-70v-328q-35 -14 -101.5 -24.5t-124.5 -10.5z
M313 74q86 0 132 16v265h-148q-63 0 -98 -40t-35 -104q0 -70 36 -103.5t113 -33.5z" />
    <glyph glyph-name="quotesingle" unicode="'" horiz-adv-x="273" 
d="M102 547l-8 203h86l-8 -203h-70z" />
    <glyph glyph-name="parenleft" unicode="(" horiz-adv-x="352" 
d="M227 -125q-85 61 -132.5 172t-47.5 250v31q0 139 47.5 250t132.5 172h62v-16q-156 -136 -156 -406v-31q0 -270 156 -406v-16h-62z" />
    <glyph glyph-name="parenright" unicode=")" horiz-adv-x="352" 
d="M62 -125v16q157 137 157 406v31q0 269 -157 406v16h63q85 -62 132.5 -173t47.5 -249v-31q0 -138 -47.5 -249t-132.5 -173h-63z" />
    <glyph glyph-name="asterisk" unicode="*" horiz-adv-x="500" 
d="M414 412l-133 76v-152h-62v152l-133 -76l-31 55l132 76l-132 76l31 55l133 -77v153h62v-153l133 77l31 -55l-133 -76l133 -76z" />
    <glyph glyph-name="plus" unicode="+" 
d="M273 148v180h-179v78h179v180h79v-180h179v-78h-179v-180h-79z" />
    <glyph glyph-name="comma" unicode="," horiz-adv-x="273" 
d="M31 -125l59 219h94v-47l-94 -172h-59z" />
    <glyph glyph-name="hyphen" unicode="-" horiz-adv-x="406" 
d="M62 328v78h282v-78h-282z" />
    <glyph glyph-name="hyphen" unicode="&#xad;" horiz-adv-x="406" 
d="M62 328v78h282v-78h-282z" />
    <glyph glyph-name="period" unicode="." horiz-adv-x="273" 
d="M90 0v94h94v-94h-94z" />
    <glyph glyph-name="slash" unicode="/" horiz-adv-x="500" 
d="M31 -125v16l364 859h74v-16l-364 -859h-74z" />
    <glyph glyph-name="zero" unicode="0" 
d="M312 -8q-128 0 -189 94t-61 289t61 289t189 94t189 -94.5t61 -288.5t-61 -288.5t-189 -94.5zM312 74q87 0 121.5 67.5t34.5 233.5t-34.5 233.5t-121.5 67.5q-88 0 -122.5 -67.5t-34.5 -233.5q0 -161 35 -231t122 -70z" />
    <glyph glyph-name="one" unicode="1" 
d="M313 0v648l-211 -85h-8v85l250 102h62v-750h-93z" />
    <glyph glyph-name="two" unicode="2" 
d="M86 0v98q0 161 148 242l86 47q63 34 90.5 66.5t27.5 89.5q0 72 -35 98.5t-106 26.5h-195v82h195q234 0 234 -207q0 -77 -40 -127t-124 -96l-86 -47q-42 -22 -65 -52.5t-29.5 -58.5t-6.5 -68v-12h359v-82h-453z" />
    <glyph glyph-name="three" unicode="3" 
d="M94 0v82h195q76 0 120 37t44 108q0 70 -39 99t-117 29h-125v83h172q94 53 94 125q0 59 -35.5 80t-113.5 21h-195v86h203q234 0 234 -168q0 -54 -21.5 -92.5t-75.5 -75.5q60 -27 86.5 -70t26.5 -117q0 -109 -71 -168t-187 -59h-195z" />
    <glyph glyph-name="four" unicode="4" 
d="M391 0v172h-344v62q140 234 187 516h94q-42 -246 -183 -500h246v219h93v-219h94v-78h-94v-172h-93z" />
    <glyph glyph-name="five" unicode="5" 
d="M94 0v82h203q148 0 148 164q0 78 -35 109.5t-113 31.5h-188v363h399v-82h-313v-199h102q242 0 242 -223q0 -108 -60 -177t-182 -69h-203z" />
    <glyph glyph-name="six" unicode="6" 
d="M313 -8q-117 0 -176 62t-59 180v235q0 124 75.5 202.5t221.5 78.5h109v-82h-109q-203 0 -203 -199v-43q93 43 156 43q115 0 167 -57.5t52 -177.5q0 -110 -56.5 -176t-177.5 -66zM313 74q68 0 104 37t36 123q0 84 -29.5 118.5t-95.5 34.5q-82 0 -156 -38v-115
q0 -160 141 -160z" />
    <glyph glyph-name="seven" unicode="7" 
d="M218 0v94q0 310 242 578h-398v78h500v-62q-57 -67 -96.5 -123.5t-77.5 -129t-57 -154.5t-19 -172v-109h-94z" />
    <glyph glyph-name="eight" unicode="8" 
d="M297 -8q-105 0 -166 52t-61 159q0 41 13.5 72t30.5 48.5t50 43.5l35 28q-113 54 -113 171q0 101 59.5 146.5t151.5 45.5h31q101 0 156 -44.5t55 -147.5q0 -50 -20.5 -82.5t-65.5 -73.5l-24 -21q63 -28 94.5 -70.5t31.5 -115.5q0 -101 -64 -156t-163 -55h-31zM354 419
l21 19q25 24 37.5 37.5t22.5 37.5t10 53q0 64 -30 89t-87 25h-31q-57 0 -87 -25t-30 -89q0 -78 78 -109zM305 78h15q66 0 103.5 27.5t37.5 97.5q0 88 -86 121l-102 40l-31 -24q-1 -1 -10 -8t-11 -9t-10.5 -9t-11 -10.5t-9 -11.5t-9 -13.5t-7 -14.5t-6 -18t-3 -20t-1.5 -23
q0 -73 37 -99t104 -26z" />
    <glyph glyph-name="nine" unicode="9" 
d="M141 0v82h109q203 0 203 199v43q-93 -43 -156 -43q-219 0 -219 235q0 109 58.5 175.5t176.5 66.5q116 0 175 -62t59 -180v-235q0 -124 -75.5 -202.5t-221.5 -78.5h-109zM297 363q82 0 156 38v115q0 160 -140 160q-69 0 -105 -36.5t-36 -123.5q0 -84 29.5 -118.5
t95.5 -34.5z" />
    <glyph glyph-name="colon" unicode=":" horiz-adv-x="273" 
d="M90 453v94h94v-94h-94zM90 0v94h94v-94h-94z" />
    <glyph glyph-name="semicolon" unicode=";" horiz-adv-x="273" 
d="M90 453v94h94v-94h-94zM31 -125l59 219h94v-47l-94 -172h-59z" />
    <glyph glyph-name="less" unicode="&#x3c;" 
d="M523 105l-429 223v78l429 223h8v-82l-359 -180l359 -179v-83h-8z" />
    <glyph glyph-name="equal" unicode="=" 
d="M94 438v78h437v-78h-437zM94 219v78h437v-78h-437z" />
    <glyph glyph-name="greater" unicode="&#x3e;" 
d="M94 105v83l359 179l-359 180v82h8l429 -223v-78l-429 -223h-8z" />
    <glyph glyph-name="question" unicode="?" horiz-adv-x="434" 
d="M129 187v94l105 125q82 98 82 172q0 94 -117 94h-137v78h137q105 0 154 -42t49 -130q0 -78 -90 -183l-97 -118v-90h-86zM129 0v94h86v-94h-86z" />
    <glyph glyph-name="at" unicode="@" horiz-adv-x="930" 
d="M477 -102q-79 0 -151 25t-132.5 75t-96 135t-35.5 195q0 105 35 188.5t94.5 135.5t134.5 79t158 27q173 0 278 -96t105 -264q0 -101 -65.5 -171.5t-168.5 -70.5h-172q-72 0 -118 46t-46 126q0 85 53 136.5t127 51.5h132v-297h24q59 0 103.5 46t44.5 133q0 136 -75.5 209
t-221.5 73q-153 0 -244.5 -88.5t-91.5 -263.5q0 -170 91 -260.5t238 -90.5q114 0 179 19h8v-74q-70 -24 -187 -24zM461 219h62v234h-46q-37 0 -65.5 -34.5t-28.5 -90.5q0 -52 21 -80.5t57 -28.5z" />
    <glyph glyph-name="A" unicode="A" horiz-adv-x="672" 
d="M23 0v8q27 112 86 312q32 110 84.5 244.5t79.5 185.5h125q27 -50 79.5 -184.5t84.5 -245.5q56 -185 86 -312v-8h-93q-23 97 -47 184h-345q-15 -56 -46 -184h-94zM203 320q-12 -38 -16 -54h297l-7 25.5t-8 28.5q-65 222 -133 352q-68 -130 -133 -352z" />
    <glyph glyph-name="B" unicode="B" horiz-adv-x="648" 
d="M94 0v750h258q211 0 211 -187q0 -64 -30.5 -111t-75.5 -69q121 -41 121 -172q0 -105 -56 -158t-163 -53h-265zM188 418h164q55 0 86 41t31 96q0 60 -28.5 86.5t-88.5 26.5h-164v-250zM188 82h171q125 0 125 129q0 125 -132 125h-164v-254z" />
    <glyph glyph-name="C" unicode="C" horiz-adv-x="641" 
d="M383 -8q-164 0 -246 91.5t-82 244.5v94q0 162 96 249t263 87q100 0 172 -35v-168h-86v109q-47 12 -102 12q-113 0 -181.5 -62t-68.5 -192v-94q0 -122 61.5 -188t173.5 -66h47q66 0 148 31h8v-78q-24 -11 -69.5 -23t-86.5 -12h-47z" />
    <glyph glyph-name="D" unicode="D" horiz-adv-x="711" 
d="M94 0v750h222q169 0 250.5 -78t81.5 -234v-110q0 -154 -76.5 -241t-239.5 -87h-238zM188 82h144q118 0 170.5 60.5t52.5 185.5v110q0 121 -59.5 175.5t-179.5 54.5h-128v-586z" />
    <glyph glyph-name="E" unicode="E" horiz-adv-x="578" 
d="M297 0q-203 0 -203 203v547h422v-82h-328v-230h296v-83h-296v-160q0 -113 101 -113h227v-82h-219z" />
    <glyph glyph-name="F" unicode="F" horiz-adv-x="547" 
d="M94 0v547q0 100 51.5 151.5t151.5 51.5h203v-82h-203q-58 0 -83.5 -28t-25.5 -93v-109h296v-83h-296v-355h-94z" />
    <glyph glyph-name="G" unicode="G" horiz-adv-x="695" 
d="M406 -8q-165 0 -254.5 92.5t-89.5 243.5v102q0 158 99.5 243t260.5 85q54 0 111.5 -11t83.5 -24v-78h-8q-101 31 -187 31q-121 0 -193.5 -58.5t-72.5 -187.5v-102q0 -122 66 -188t184 -66h31q49 0 94 12v199h-156v82h242v-336q-22 -12 -79.5 -25.5t-100.5 -13.5h-31z" />
    <glyph glyph-name="H" unicode="H" horiz-adv-x="742" 
d="M94 0v750h94v-312h367v312h93v-750h-93v355h-367v-355h-94z" />
    <glyph glyph-name="I" unicode="I" horiz-adv-x="281" 
d="M94 0v750h93v-750h-93z" />
    <glyph glyph-name="J" unicode="J" horiz-adv-x="453" 
d="M47 0v82h94q59 0 92 36.5t33 100.5v449h-188v82h281v-531q0 -100 -59.5 -159.5t-158.5 -59.5h-94z" />
    <glyph glyph-name="K" unicode="K" horiz-adv-x="641" 
d="M94 0v750h94v-320h46l285 320h98v-8l-308 -347l316 -387v-8h-105l-290 352h-42v-352h-94z" />
    <glyph glyph-name="L" unicode="L" horiz-adv-x="516" 
d="M297 0q-100 0 -151.5 51.5t-51.5 151.5v547h94v-555q0 -113 101 -113h211v-82h-203z" />
    <glyph glyph-name="M" unicode="M" horiz-adv-x="844" 
d="M94 0v750h78l250 -355l250 355h78v-750h-94v582l-218 -301h-43l-207 293v-574h-94z" />
    <glyph glyph-name="N" unicode="N" horiz-adv-x="750" 
d="M94 0v750h62l407 -555v555h93v-750h-62l-406 555v-555h-94z" />
    <glyph glyph-name="O" unicode="O" horiz-adv-x="734" 
d="M367 -8q-152 0 -232 90.5t-80 261.5v62q0 166 80.5 259t231.5 93q152 0 232.5 -91t80.5 -261v-62q0 -166 -81 -259t-232 -93zM367 74q110 0 164.5 65.5t54.5 204.5v62q0 139 -54.5 204.5t-164.5 65.5t-164.5 -65.5t-54.5 -204.5v-62q0 -139 54.5 -204.5t164.5 -65.5z" />
    <glyph glyph-name="P" unicode="P" horiz-adv-x="609" 
d="M94 0v750h242q226 0 226 -242q0 -121 -61 -189.5t-181 -68.5h-133v-250h-93zM187 332h133q87 0 118 45t31 131q0 85 -30.5 122.5t-110.5 37.5h-141v-336z" />
    <glyph glyph-name="Q" unicode="Q" horiz-adv-x="734" 
d="M469 -188q-69 0 -105 39.5t-36 105.5v37q-133 11 -203 101t-70 249v62q0 166 80.5 259t231.5 93q152 0 232.5 -91t80.5 -261v-62q0 -154 -71 -246t-203 -104v-37q0 -33 16 -47.5t58 -14.5q67 0 106 15h8v-78q-60 -20 -125 -20zM367 74q110 0 164.5 65.5t54.5 204.5v62
q0 139 -54.5 204.5t-164.5 65.5t-164.5 -65.5t-54.5 -204.5v-62q0 -139 54.5 -204.5t164.5 -65.5z" />
    <glyph glyph-name="R" unicode="R" horiz-adv-x="656" 
d="M94 0v750h242q117 0 171.5 -54.5t54.5 -172.5q0 -86 -35 -136t-101 -78q60 -55 113 -148.5t70 -152.5v-8h-97q-13 52 -70 146t-106 135h-149v-281h-93zM187 363h125q157 0 157 160q0 81 -31.5 113t-109.5 32h-141v-305z" />
    <glyph glyph-name="S" unicode="S" horiz-adv-x="586" 
d="M250 -8q-43 0 -105.5 11t-89.5 20v82h8q107 -31 187 -31h31q157 0 157 129q0 57 -26.5 83.5t-83.5 41.5l-101 27q-164 46 -164 200q0 91 65.5 147t176.5 56h23q41 0 94.5 -10t77.5 -21v-79h-8q-84 28 -164 28h-23q-149 0 -149 -121q0 -53 27.5 -77t82.5 -40l97 -28
q35 -10 60 -22t52 -34.5t41.5 -60.5t14.5 -90q0 -97 -66.5 -154t-183.5 -57h-31z" />
    <glyph glyph-name="T" unicode="T" horiz-adv-x="594" 
d="M250 0v668h-234v82h562v-82h-234v-668h-94z" />
    <glyph glyph-name="U" unicode="U" horiz-adv-x="719" 
d="M359 -8q-129 0 -201 69.5t-72 196.5v492h94v-492q0 -95 49 -139.5t130 -44.5q82 0 131 44.5t49 139.5v492h94v-492q0 -127 -74.5 -196.5t-199.5 -69.5z" />
    <glyph glyph-name="V" unicode="V" horiz-adv-x="641" 
d="M262 0q-55 92 -126.5 302.5t-112.5 439.5v8h94q75 -406 207 -672q132 266 207 672h86v-8q-40 -227 -111.5 -438t-126.5 -304h-117z" />
    <glyph glyph-name="W" unicode="W" horiz-adv-x="992" 
d="M223 0q-48 95 -108 304.5t-92 437.5v8h94q60 -413 172 -672q109 236 172 672h78q60 -415 172 -672q108 230 172 672h86v-8q-32 -228 -91.5 -437t-107.5 -305h-114q-32 64 -75 199t-81 297q-83 -351 -156 -496h-121z" />
    <glyph glyph-name="X" unicode="X" 
d="M20 0v8l236 368l-236 366v8h105l187 -288l184 288h94v-8l-230 -356l245 -378v-8h-105l-194 300l-193 -300h-93z" />
    <glyph glyph-name="Y" unicode="Y" horiz-adv-x="602" 
d="M258 0v301l-238 441v8h97l192 -359l191 359h90v-8l-238 -433v-309h-94z" />
    <glyph glyph-name="Z" unicode="Z" horiz-adv-x="609" 
d="M47 0v43q99 128 220 318t167 307h-372v82h493v-31q-47 -119 -166.5 -318t-208.5 -319h382v-82h-515z" />
    <glyph glyph-name="bracketleft" unicode="[" horiz-adv-x="375" 
d="M94 -125v875h218v-63h-132v-750h132v-62h-218z" />
    <glyph glyph-name="backslash" unicode="\" horiz-adv-x="500" 
d="M395 -125l-364 859v16h74l364 -859v-16h-74z" />
    <glyph glyph-name="bracketright" unicode="]" horiz-adv-x="375" 
d="M62 -125v62h133v750h-133v63h219v-875h-219z" />
    <glyph glyph-name="asciicircum" unicode="^" 
d="M51 109v8l222 430h79l222 -430v-8h-82l-179 360l-180 -360h-82z" />
    <glyph glyph-name="underscore" unicode="_" 
d="M31 -78v78h563v-78h-563z" />
    <glyph glyph-name="grave" unicode="`" horiz-adv-x="195" 
d="M141 625l-141 141v15h98l97 -140v-16h-54z" />
    <glyph glyph-name="a" unicode="a" horiz-adv-x="590" 
d="M215 -8q-69 0 -112.5 46.5t-43.5 141.5v86q0 124 86 202.5t203 78.5h148v-547h-86v102l-39 -39q-73 -71 -156 -71zM379 156l31 32v281h-62q-90 0 -146.5 -55t-56.5 -148v-86q0 -110 85 -110q63 0 149 86z" />
    <glyph glyph-name="b" unicode="b" horiz-adv-x="590" 
d="M94 0v750h86v-305l39 39q71 71 156 71q69 0 112.5 -46.5t43.5 -141.5v-86q0 -124 -86 -202.5t-203 -78.5h-148zM211 391l-31 -32v-281h62q89 0 146 55.5t57 147.5v86q0 110 -86 110q-62 0 -148 -86z" />
    <glyph glyph-name="c" unicode="c" horiz-adv-x="500" 
d="M293 -8q-109 0 -171.5 60t-62.5 175v93q0 109 70 172t164 63q92 0 156 -39v-141h-78v86q-32 16 -78 16q-64 0 -106 -38.5t-42 -118.5v-93q0 -76 38.5 -116.5t109.5 -40.5q76 0 141 35h7v-78q-72 -35 -148 -35z" />
    <glyph glyph-name="d" unicode="d" horiz-adv-x="590" 
d="M215 -8q-69 0 -112.5 46.5t-43.5 141.5v86q0 124 86 202.5t203 78.5h62v203h86v-750h-86v102l-39 -39q-73 -71 -156 -71zM379 156l31 32v281h-62q-90 0 -146.5 -55t-56.5 -148v-86q0 -110 85 -110q63 0 149 86z" />
    <glyph glyph-name="e" unicode="e" horiz-adv-x="531" 
d="M293 -8q-106 0 -170 54t-64 165v109q0 109 65.5 172t168.5 63q86 0 136.5 -39t50.5 -118q0 -73 -45 -114.5t-126 -41.5h-164v-31q0 -141 148 -141q75 0 148 35h8v-78q-24 -11 -69.5 -23t-86.5 -12zM145 320v-7h140q62 0 86 21t24 64q0 79 -102 79q-148 0 -148 -157z" />
    <glyph glyph-name="f" unicode="f" horiz-adv-x="344" 
d="M117 0v469h-86v78h86v23q0 87 48.5 133.5t131.5 46.5h62v-78h-62q-52 0 -73 -24t-21 -78v-23h141v-78h-141v-469h-86z" />
    <glyph glyph-name="g" unicode="g" horiz-adv-x="590" 
d="M105 -188v79h94q113 0 162 39t49 133v23l-18 -10q-88 -45 -162 -45t-122.5 51t-48.5 148v36q0 130 78.5 205.5t194.5 75.5h164v-477q0 -136 -75.5 -197t-221.5 -61h-94zM395 148l15 8v313h-78q-87 0 -137 -54.5t-50 -148.5v-36q0 -121 101 -121q69 0 149 39z" />
    <glyph glyph-name="h" unicode="h" horiz-adv-x="613" 
d="M438 0v367q0 110 -86 110q-55 0 -141 -86l-31 -32v-359h-86v750h86v-305l39 39q71 71 156 71q148 0 148 -188v-367h-85z" />
    <glyph glyph-name="i" unicode="i" horiz-adv-x="289" 
d="M109 656v94h86v-94h-86zM109 0v469h-93v78h179v-547h-86z" />
    <glyph glyph-name="j" unicode="j" horiz-adv-x="297" 
d="M117 656v94h86v-94h-86zM-55 -188v79h39q74 0 103.5 38t29.5 118v422h-94v78h180v-484q0 -130 -56 -190.5t-178 -60.5h-24z" />
    <glyph glyph-name="k" unicode="k" horiz-adv-x="539" 
d="M94 0v750h86v-414h54l180 211h98v-8l-207 -238l215 -293v-8h-98l-188 258h-54v-258h-86z" />
    <glyph glyph-name="l" unicode="l" horiz-adv-x="273" 
d="M94 0v672h-94v78h180v-750h-86z" />
    <glyph glyph-name="m" unicode="m" horiz-adv-x="957" 
d="M94 0v547h86v-102l39 39q71 71 156 71q113 0 140 -110h8l40 39q75 71 156 71q148 0 148 -188v-367h-86v367q0 110 -86 110q-54 0 -140 -86l-32 -32v-359h-85v367q0 110 -86 110q-55 0 -141 -86l-31 -32v-359h-86z" />
    <glyph glyph-name="n" unicode="n" horiz-adv-x="613" 
d="M94 0v547h86v-102l39 39q71 71 156 71q148 0 148 -188v-367h-86v367q0 110 -85 110q-55 0 -141 -86l-31 -32v-359h-86z" />
    <glyph glyph-name="o" unicode="o" horiz-adv-x="586" 
d="M293 -8q-238 0 -238 289q0 127 60.5 200.5t177.5 73.5q121 0 179.5 -72.5t58.5 -201.5q0 -137 -60 -213t-178 -76zM293 70q152 0 152 211q0 97 -34 146.5t-118 49.5t-118 -49.5t-34 -146.5q0 -211 152 -211z" />
    <glyph glyph-name="p" unicode="p" horiz-adv-x="590" 
d="M94 -188v735h86v-102l39 39q71 71 156 71q69 0 112.5 -46.5t43.5 -141.5v-86q0 -124 -86 -202.5t-203 -78.5h-62v-188h-86zM211 391l-31 -32v-281h62q89 0 146 55.5t57 147.5v86q0 110 -86 110q-62 0 -148 -86z" />
    <glyph glyph-name="q" unicode="q" horiz-adv-x="590" 
d="M410 -188v290l-39 -39q-73 -71 -156 -71q-69 0 -112.5 46.5t-43.5 141.5v86q0 124 86 202.5t203 78.5h148v-735h-86zM379 156l31 32v281h-62q-90 0 -146.5 -55t-56.5 -148v-86q0 -110 85 -110q63 0 149 86z" />
    <glyph glyph-name="r" unicode="r" horiz-adv-x="398" 
d="M94 0v547h86v-121l8 12q71 109 160 109h35v-94h-39q-61 0 -102 -39l-62 -62v-352h-86z" />
    <glyph glyph-name="s" unicode="s" horiz-adv-x="516" 
d="M234 -8q-95 0 -160 20v78h8q78 -20 152 -20q133 0 133 86q0 59 -86 78l-82 20q-129 30 -129 144q0 73 57 115t154 42q67 0 145 -16v-78h-8q-82 16 -137 16q-125 0 -125 -79q0 -17 4.5 -28t16.5 -18t21 -10t29 -8l74 -18q73 -17 112.5 -52t39.5 -108q0 -85 -62 -124.5
t-157 -39.5z" />
    <glyph glyph-name="t" unicode="t" horiz-adv-x="406" 
d="M375 0h-70q-188 0 -188 188v281h-86v78h86v125h86v-125h156v-78h-156v-266q0 -74 25.5 -99.5t91.5 -25.5h55v-78z" />
    <glyph glyph-name="u" unicode="u" horiz-adv-x="613" 
d="M238 -8q-148 0 -148 188v367h86v-367q0 -110 86 -110q54 0 140 86l32 32v359h86v-547h-86v102l-39 -39q-71 -71 -157 -71z" />
    <glyph glyph-name="v" unicode="v" horiz-adv-x="523" 
d="M211 0q-51 44 -103.5 162t-52.5 244v141h86v-141q0 -109 36 -202t85 -141q49 49 85 141.5t36 201.5v141h86v-141q0 -125 -55.5 -242.5t-108.5 -163.5h-94z" />
    <glyph glyph-name="w" unicode="w" horiz-adv-x="758" 
d="M188 0q-48 48 -90.5 162.5t-42.5 243.5v141h86v-141q0 -109 29 -202t68 -141q39 49 68.5 141.5t29.5 201.5v141h86v-141q0 -109 29.5 -201.5t68.5 -141.5q39 49 68 141.5t29 201.5v141h86v-141q0 -129 -42.5 -243.5t-90.5 -162.5h-93q-24 26 -57 86.5t-41 101.5
q-8 -41 -41 -101.5t-57 -86.5h-93z" />
    <glyph glyph-name="x" unicode="x" horiz-adv-x="500" 
d="M23 0v8l181 265l-173 266v8h94l130 -199l136 199h86v-8l-177 -260l177 -271v-8h-94l-134 205l-140 -205h-86z" />
    <glyph glyph-name="y" unicode="y" horiz-adv-x="613" 
d="M129 -188v79h94q110 0 160.5 46t50.5 141v31l-8 -4q-87 -42 -172 -42q-71 0 -117.5 48t-46.5 147v289h86v-289q0 -117 101 -117q79 0 157 39v367h86v-461q0 -138 -77 -206t-220 -68h-94z" />
    <glyph glyph-name="z" unicode="z" horiz-adv-x="523" 
d="M55 0v70q75 76 166.5 193t141.5 206h-293v78h391v-70q-27 -72 -130 -207t-167 -192h305v-78h-414z" />
    <glyph glyph-name="braceleft" unicode="{" horiz-adv-x="469" 
d="M391 -125q-97 0 -134.5 40.5t-37.5 131.5v125q0 53 -37.5 80t-119.5 33v55q82 6 119.5 33t37.5 80v125q0 91 37.5 131.5t134.5 40.5h46v-63h-46q-52 0 -69 -20.5t-17 -80.5v-125q0 -68 -34.5 -102t-94.5 -47q60 -14 94.5 -47t34.5 -101v-125q0 -60 17 -81t69 -21h46v-62
h-46z" />
    <glyph glyph-name="bar" unicode="|" horiz-adv-x="273" 
d="M98 -188v1001h78v-1001h-78z" />
    <glyph glyph-name="braceright" unicode="}" horiz-adv-x="469" 
d="M31 -125v62h47q52 0 69 21t17 81v125q0 68 34.5 101.5t94.5 47.5q-60 13 -94.5 46.5t-34.5 101.5v125q0 60 -17 81t-69 21h-47v62h47q97 0 134.5 -40.5t37.5 -131.5v-125q0 -53 37.5 -80t118.5 -33v-55q-81 -6 -118.5 -33t-37.5 -80v-125q0 -91 -37.5 -131.5
t-134.5 -40.5h-47z" />
    <glyph glyph-name="asciitilde" unicode="~" 
d="M94 262v74q16 29 47 49.5t70 20.5q37 0 109 -33t98 -33q39 0 63 16t42 50h8v-74q-16 -29 -47 -49.5t-70 -20.5q-37 0 -109 33t-98 33q-64 0 -105 -66h-8z" />
    <glyph glyph-name="exclamdown" unicode="&#xa1;" horiz-adv-x="273" 
d="M94 656v94h86v-94h-86zM94 0l11 531h63l12 -531h-86z" />
    <glyph glyph-name="cent" unicode="&#xa2;" 
d="M352 754v113h78v-109q97 -5 156 -31v-79h-8q-81 28 -180 28q-113 0 -181.5 -62t-68.5 -192v-94q0 -122 61.5 -188t173.5 -66h47q66 0 148 31h8v-78q-75 -33 -148 -35v-117h-79v118q-152 7 -228 97t-76 238v94q0 145 78.5 230.5t218.5 101.5z" />
    <glyph glyph-name="sterling" unicode="&#xa3;" 
d="M109 82q78 53 78 184v89h-93v82h93v71q0 110 69 176t181 66h110v-82h-110q-77 0 -116.5 -40.5t-39.5 -119.5v-71h219v-82h-219v-89q0 -136 -78 -184h344v-82h-485v82h47z" />
    <glyph glyph-name="currency" unicode="&#xa4;" horiz-adv-x="500" 
d="M256 534h1q70 0 115 -40l71 75l45 -46l-79 -71q35 -47 35 -118q0 -76 -35 -122l75 -74l-44 -44l-69 76q-45 -42 -117 -42q-71 0 -114 40l-67 -74l-43 44l72 70q-37 50 -37 121q0 73 39 123l-76 71l45 46l68 -76q48 41 115 41zM255 471h-1q-53 0 -85.5 -40.5t-32.5 -100.5
q0 -67 36.5 -103t81.5 -36q48 0 83.5 35.5t35.5 106.5q0 56 -31.5 97t-86.5 41z" />
    <glyph glyph-name="yen" unicode="&#xa5;" 
d="M359 188v-188h-93v188h-203v82h203v74l-239 398v8h98l195 -328l188 328h90v-8l-239 -398v-74h204v-82h-204z" />
    <glyph glyph-name="brokenbar" unicode="&#xa6;" horiz-adv-x="273" 
d="M98 406v407h78v-407h-78zM98 -188v407h78v-407h-78z" />
    <glyph glyph-name="section" unicode="&#xa7;" horiz-adv-x="531" 
d="M473 246h-12l-242 156q-117 75 -117 180q0 77 57.5 122.5t145.5 45.5h195v-82h-199q-106 0 -106 -82q0 -67 71 -113l207 -137v-90zM59 316h11l243 -156q57 -37 87 -79.5t30 -100.5q0 -77 -58 -122.5t-145 -45.5h-196v83h199q106 0 106 82q0 67 -70 113l-207 137v89z" />
    <glyph glyph-name="dieresis" unicode="&#xa8;" horiz-adv-x="328" 
d="M242 625v94h86v-94h-86zM0 625v94h86v-94h-86z" />
    <glyph glyph-name="copyright" unicode="&#xa9;" horiz-adv-x="859" 
d="M430 16q-166 0 -274.5 102t-108.5 265t108.5 265t274.5 102q165 0 273.5 -102t108.5 -265t-108.5 -265t-273.5 -102zM430 70q144 0 232 88t88 225t-88 224.5t-232 87.5q-145 0 -233 -87.5t-88 -224.5t88 -225t233 -88zM469 180q-101 0 -168 49.5t-67 153.5q0 71 34.5 118
t85.5 66t115 19q37 0 93 -16v-47q-56 16 -93 16q-69 0 -113 -39t-44 -117t44 -117t113 -39q48 0 93 15v-47q-45 -15 -93 -15z" />
    <glyph glyph-name="ordfeminine" unicode="&#xaa;" horiz-adv-x="507" 
d="M185 323q-60 0 -97 36t-37 109v65q0 97 73.5 157t174.5 60h128v-421h-74v78l-34 -29q-60 -55 -134 -55zM326 449l27 26v215h-54q-77 0 -126 -42.5t-49 -114.5v-65q0 -85 74 -85q51 0 128 66z" />
    <glyph glyph-name="guillemotleft" unicode="&#xab;" horiz-adv-x="586" 
d="M523 125l-211 180v62l211 180h8v-94l-140 -117l140 -117v-94h-8zM273 125l-211 180v62l211 180h8v-94l-140 -117l140 -117v-94h-8z" />
    <glyph glyph-name="logicalnot" unicode="&#xac;" 
d="M453 148v180h-359v78h437v-258h-78z" />
    <glyph glyph-name="registered" unicode="&#xae;" horiz-adv-x="859" 
d="M430 16q-166 0 -274.5 102t-108.5 265t108.5 265t274.5 102q165 0 273.5 -102t108.5 -265t-108.5 -265t-273.5 -102zM430 70q144 0 232 88t88 225t-88 224.5t-232 87.5q-145 0 -233 -87.5t-88 -224.5t88 -225t233 -88zM281 180v406h133q164 0 164 -125q0 -42 -21.5 -72
t-60.5 -41l94 -161v-7h-82l-78 140h-71v-140h-78zM359 367h55q37 0 61.5 24.5t24.5 69.5q0 39 -24 58.5t-62 19.5h-55v-172z" />
    <glyph glyph-name="macron" unicode="&#xaf;" horiz-adv-x="250" 
d="M0 625v63h250v-63h-250z" />
    <glyph glyph-name="macron" unicode="&#x2c9;" horiz-adv-x="250" 
d="M0 625v63h250v-63h-250z" />
    <glyph glyph-name="degree" unicode="&#xb0;" horiz-adv-x="412" 
d="M207 320q-87 0 -128 53.5t-41 163.5q0 111 41 164.5t128 53.5q169 0 169 -218q0 -217 -169 -217zM207 381q51 0 72 35.5t21 120.5q0 86 -21 122t-72 36q-52 0 -73 -36t-21 -122q0 -83 21 -119.5t73 -36.5z" />
    <glyph glyph-name="plusminus" unicode="&#xb1;" 
d="M273 148v180h-179v78h179v180h79v-180h179v-78h-179v-180h-79zM94 -78v78h437v-78h-437z" />
    <glyph glyph-name="twosuperior" unicode="&#xb2;" horiz-adv-x="412" 
d="M53 324v62q0 92 99 138l56 27q39 18 55 33.5t16 44.5q0 35 -20.5 48t-62.5 13h-134v60h134q159 0 159 -121q0 -43 -28.5 -73.5t-82.5 -54.5l-56 -25q-36 -16 -48 -38t-12 -53h231v-61h-306z" />
    <glyph glyph-name="threesuperior" unicode="&#xb3;" horiz-adv-x="412" 
d="M58 324v61h132q99 0 99 71q0 64 -93 64h-89v59h120q52 28 52 62q0 28 -21 37.5t-68 9.5h-132v62h138q159 0 159 -99q0 -32 -10.5 -52t-42.5 -39q63 -32 63 -104q0 -63 -48 -97.5t-127 -34.5h-132z" />
    <glyph glyph-name="acute" unicode="&#xb4;" horiz-adv-x="195" 
d="M0 625v16l98 140h97v-15l-140 -141h-55z" />
    <glyph glyph-name="mu" unicode="&#xb5;" horiz-adv-x="613" 
d="M547 0h-86q-23 32 -27 101l-39 -38q-36 -35 -72 -53t-85 -18q-34 0 -62 11v-191h-86v735h86v-367q0 -110 86 -110q54 0 140 86l32 31v360h86v-422q0 -86 27 -125z" />
    <glyph glyph-name="mu" unicode="&#x3bc;" horiz-adv-x="613" 
d="M547 0h-86q-23 32 -27 101l-39 -38q-36 -35 -72 -53t-85 -18q-34 0 -62 11v-191h-86v735h86v-367q0 -110 86 -110q54 0 140 86l32 31v360h86v-422q0 -86 27 -125z" />
    <glyph glyph-name="paragraph" unicode="&#xb6;" horiz-adv-x="727" 
d="M547 -188v938h86v-938h-86zM375 -188v376h-62q-123 0 -202.5 73t-79.5 208t79.5 208t202.5 73h148v-938h-86z" />
    <glyph glyph-name="periodcentered" unicode="&#xb7;" horiz-adv-x="273" 
d="M90 313v93h94v-93h-94z" />
    <glyph glyph-name="periodcentered" unicode="&#x2219;" horiz-adv-x="273" 
d="M90 313v93h94v-93h-94z" />
    <glyph glyph-name="cedilla" unicode="&#xb8;" horiz-adv-x="215" 
d="M0 -188v55h94q54 0 54 35q0 17 -15.5 35t-34.5 28v12h54q27 -12 45 -35.5t18 -46.5q0 -42 -31 -62.5t-79 -20.5h-105z" />
    <glyph glyph-name="onesuperior" unicode="&#xb9;" horiz-adv-x="412" 
d="M198 324v353l-126 -44h-16v60l167 57h51v-426h-76z" />
    <glyph glyph-name="ordmasculine" unicode="&#xba;" horiz-adv-x="504" 
d="M252 323q-205 0 -205 223q0 97 52 153.5t153 56.5q104 0 154.5 -55.5t50.5 -154.5q0 -106 -51.5 -164.5t-153.5 -58.5zM252 383q131 0 131 163q0 74 -29.5 112t-101.5 38t-101.5 -38t-29.5 -112q0 -163 131 -163z" />
    <glyph glyph-name="guillemotright" unicode="&#xbb;" horiz-adv-x="586" 
d="M305 125v94l140 117l-140 117v94h7l211 -180v-62l-211 -180h-7zM55 125v94l140 117l-140 117v94h7l211 -180v-62l-211 -180h-7z" />
    <glyph glyph-name="onequarter" unicode="&#xbc;" horiz-adv-x="937" 
d="M254 0v12l375 738h55v-12l-375 -738h-55zM203 324v352l-129 -43h-15v58l168 59h50v-426h-74zM754 0v94h-223v47q93 131 121 285h78q-30 -146 -113 -274h137v121h74v-121h63v-58h-63v-94h-74z" />
    <glyph glyph-name="onehalf" unicode="&#xbd;" horiz-adv-x="938" 
d="M254 0v12l375 738h55v-12l-375 -738h-55zM202 324v353l-126 -44h-16v60l167 57h51v-426h-76zM549 0v62q0 92 99 138l56 27q39 18 55 33.5t16 44.5q0 35 -20.5 48t-62.5 13h-133v60h133q160 0 160 -121q0 -78 -112 -128l-55 -26q-36 -16 -48.5 -37.5t-12.5 -52.5h231v-61
h-306z" />
    <glyph glyph-name="threequarters" unicode="&#xbe;" horiz-adv-x="937" 
d="M254 0v12l375 738h55v-12l-375 -738h-55zM754 0v95h-222v45q93 131 121 286h78q-30 -144 -114 -274h137v120h75v-120h62v-57h-62v-95h-75zM55 324v61h132q99 0 99 71q0 64 -93 64h-89v59h120q52 28 52 62q0 28 -21 37.5t-68 9.5h-132v62h138q160 0 160 -99
q0 -32 -11 -51.5t-43 -39.5q63 -32 63 -104q0 -63 -48 -97.5t-127 -34.5h-132z" />
    <glyph glyph-name="questiondown" unicode="&#xbf;" horiz-adv-x="434" 
d="M219 656v94h86v-94h-86zM234 0q-105 0 -154 42t-49 130q0 74 90 183l98 118v90h86v-94l-106 -125q-82 -100 -82 -172q0 -94 117 -94h137v-78h-137z" />
    <glyph glyph-name="Agrave" unicode="&#xc0;" horiz-adv-x="672" 
d="M23 0v8q27 112 86 312q32 110 84.5 244.5t79.5 185.5h125q27 -50 79.5 -184.5t84.5 -245.5q56 -185 86 -312v-8h-93q-23 97 -47 184h-345q-15 -56 -46 -184h-94zM203 320q-12 -38 -16 -54h297l-7 25.5t-8 28.5q-65 222 -133 352q-68 -130 -133 -352zM363 828l-140 141v15
h97l98 -140v-16h-55z" />
    <glyph glyph-name="Aacute" unicode="&#xc1;" horiz-adv-x="672" 
d="M23 0v8q27 112 86 312q32 110 84.5 244.5t79.5 185.5h125q27 -50 79.5 -184.5t84.5 -245.5q56 -185 86 -312v-8h-93q-23 97 -47 184h-345q-15 -56 -46 -184h-94zM203 320q-12 -38 -16 -54h297l-7 25.5t-8 28.5q-65 222 -133 352q-68 -130 -133 -352zM254 828v16l98 140
h97v-15l-140 -141h-55z" />
    <glyph glyph-name="Acircumflex" unicode="&#xc2;" horiz-adv-x="672" 
d="M23 0v8q27 112 86 312q32 110 84.5 244.5t79.5 185.5h125q27 -50 79.5 -184.5t84.5 -245.5q56 -185 86 -312v-8h-93q-23 97 -47 184h-345q-15 -56 -46 -184h-94zM203 320q-12 -38 -16 -54h297l-7 25.5t-8 28.5q-65 222 -133 352q-68 -130 -133 -352zM164 828v16l125 140
h94l125 -142v-14h-63l-109 113l-109 -113h-63z" />
    <glyph glyph-name="Atilde" unicode="&#xc3;" horiz-adv-x="672" 
d="M23 0v8q27 112 86 312q32 110 84.5 244.5t79.5 185.5h125q27 -50 79.5 -184.5t84.5 -245.5q56 -185 86 -312v-8h-93q-23 97 -47 184h-345q-15 -56 -46 -184h-94zM203 320q-12 -38 -16 -54h297l-7 25.5t-8 28.5q-65 222 -133 352q-68 -130 -133 -352zM164 828v64
q47 77 98 77q29 0 81 -38.5t67 -38.5q18 0 36 13.5t28 26.5t26 37h8v-63q-46 -78 -98 -78q-27 0 -79.5 39t-68.5 39q-18 0 -36.5 -14t-28 -27t-25.5 -37h-8z" />
    <glyph glyph-name="Adieresis" unicode="&#xc4;" horiz-adv-x="672" 
d="M23 0v8q27 112 86 312q32 110 84.5 244.5t79.5 185.5h125q27 -50 79.5 -184.5t84.5 -245.5q56 -185 86 -312v-8h-93q-23 97 -47 184h-345q-15 -56 -46 -184h-94zM203 320q-12 -38 -16 -54h297l-7 25.5t-8 28.5q-65 222 -133 352q-68 -130 -133 -352zM414 828v94h86v-94
h-86zM172 828v94h86v-94h-86z" />
    <glyph glyph-name="Aring" unicode="&#xc5;" horiz-adv-x="672" 
d="M23 0v8q27 112 86 312q32 110 84.5 244.5t79.5 185.5h125q27 -50 79.5 -184.5t84.5 -245.5q56 -185 86 -312v-8h-93q-23 97 -47 184h-345q-15 -56 -46 -184h-94zM203 320q-12 -38 -16 -54h297l-7 25.5t-8 28.5q-65 222 -133 352q-68 -130 -133 -352zM336 828
q-56 0 -84.5 29t-28.5 73t28.5 72.5t84.5 28.5t84.5 -28.5t28.5 -72.5t-28.5 -73t-84.5 -29zM336 867q33 0 49.5 18.5t16.5 44.5t-16.5 44t-49.5 18t-49.5 -18t-16.5 -44t16.5 -44.5t49.5 -18.5z" />
    <glyph glyph-name="AE" unicode="&#xc6;" horiz-adv-x="883" 
d="M23 0v8q27 112 86 312q32 110 84.5 244.5t79.5 185.5h547v-82h-328v-230h297v-83h-297v-160q0 -113 102 -113h226v-82h-218q-194 0 -204 184h-235q-15 -56 -46 -184h-94zM203 320q-12 -38 -16 -54h211v406h-62q-68 -130 -133 -352z" />
    <glyph glyph-name="Ccedilla" unicode="&#xc7;" horiz-adv-x="641" 
d="M383 -8q-164 0 -246 91.5t-82 244.5v94q0 162 96 249t263 87q100 0 172 -35v-168h-86v109q-47 12 -102 12q-113 0 -181.5 -62t-68.5 -192v-94q0 -122 61.5 -188t173.5 -66h47q66 0 148 31h8v-78q-24 -11 -69.5 -23t-86.5 -12h-47zM260 -188v55h94q54 0 54 35
q0 17 -15.5 35t-35.5 28v12h55q27 -12 45 -35.5t18 -46.5q0 -42 -31 -62.5t-79 -20.5h-105z" />
    <glyph glyph-name="Egrave" unicode="&#xc8;" horiz-adv-x="578" 
d="M297 0q-203 0 -203 203v547h422v-82h-328v-230h296v-83h-296v-160q0 -113 101 -113h227v-82h-219zM332 828l-141 141v15h98l98 -140v-16h-55z" />
    <glyph glyph-name="Eacute" unicode="&#xc9;" horiz-adv-x="578" 
d="M297 0q-203 0 -203 203v547h422v-82h-328v-230h296v-83h-296v-160q0 -113 101 -113h227v-82h-219zM230 828v16l98 140h98v-15l-141 -141h-55z" />
    <glyph glyph-name="Ecircumflex" unicode="&#xca;" horiz-adv-x="578" 
d="M297 0q-203 0 -203 203v547h422v-82h-328v-230h296v-83h-296v-160q0 -113 101 -113h227v-82h-219zM129 828v16l125 140h94l125 -142v-14h-63l-109 113l-110 -113h-62z" />
    <glyph glyph-name="Edieresis" unicode="&#xcb;" horiz-adv-x="578" 
d="M297 0q-203 0 -203 203v547h422v-82h-328v-230h296v-83h-296v-160q0 -113 101 -113h227v-82h-219zM375 828v94h86v-94h-86zM133 828v94h86v-94h-86z" />
    <glyph glyph-name="Igrave" unicode="&#xcc;" horiz-adv-x="281" 
d="M94 0v750h93v-750h-93zM168 828l-141 141v15h98l98 -140v-16h-55z" />
    <glyph glyph-name="Iacute" unicode="&#xcd;" horiz-adv-x="281" 
d="M94 0v750h93v-750h-93zM59 828v16l97 140h98v-15l-141 -141h-54z" />
    <glyph glyph-name="Icircumflex" unicode="&#xce;" horiz-adv-x="281" 
d="M94 0v750h93v-750h-93zM-31 828v16l125 140h93l125 -142v-14h-62l-109 113l-110 -113h-62z" />
    <glyph glyph-name="Idieresis" unicode="&#xcf;" horiz-adv-x="281" 
d="M94 0v750h93v-750h-93zM219 828v94h86v-94h-86zM-23 828v94h85v-94h-85z" />
    <glyph glyph-name="Eth" unicode="&#xd0;" horiz-adv-x="711" 
d="M94 0v355h-63v83h63v312h222q169 0 250.5 -78t81.5 -234v-110q0 -154 -76.5 -241t-239.5 -87h-238zM188 82h144q118 0 170.5 60.5t52.5 185.5v110q0 121 -59.5 175.5t-179.5 54.5h-128v-230h125v-83h-125v-273z" />
    <glyph glyph-name="Ntilde" unicode="&#xd1;" horiz-adv-x="750" 
d="M94 0v750h62l407 -555v555h93v-750h-62l-406 555v-555h-94zM199 828v64q47 77 98 77q30 0 81.5 -38.5t66.5 -38.5q18 0 36 13.5t28 26.5t26 37h8v-63q-46 -78 -98 -78q-27 0 -79.5 39t-68.5 39q-18 0 -36.5 -14t-28 -27t-25.5 -37h-8z" />
    <glyph glyph-name="Ograve" unicode="&#xd2;" horiz-adv-x="734" 
d="M367 -8q-152 0 -232 90.5t-80 261.5v62q0 166 80.5 259t231.5 93q152 0 232.5 -91t80.5 -261v-62q0 -166 -81 -259t-232 -93zM367 74q110 0 164.5 65.5t54.5 204.5v62q0 139 -54.5 204.5t-164.5 65.5t-164.5 -65.5t-54.5 -204.5v-62q0 -139 54.5 -204.5t164.5 -65.5z
M395 828l-141 141v15h98l97 -140v-16h-54z" />
    <glyph glyph-name="Oacute" unicode="&#xd3;" horiz-adv-x="734" 
d="M367 -8q-152 0 -232 90.5t-80 261.5v62q0 166 80.5 259t231.5 93q152 0 232.5 -91t80.5 -261v-62q0 -166 -81 -259t-232 -93zM367 74q110 0 164.5 65.5t54.5 204.5v62q0 139 -54.5 204.5t-164.5 65.5t-164.5 -65.5t-54.5 -204.5v-62q0 -139 54.5 -204.5t164.5 -65.5z
M281 828v16l98 140h98v-15l-141 -141h-55z" />
    <glyph glyph-name="Ocircumflex" unicode="&#xd4;" horiz-adv-x="734" 
d="M367 -8q-152 0 -232 90.5t-80 261.5v62q0 166 80.5 259t231.5 93q152 0 232.5 -91t80.5 -261v-62q0 -166 -81 -259t-232 -93zM367 74q110 0 164.5 65.5t54.5 204.5v62q0 139 -54.5 204.5t-164.5 65.5t-164.5 -65.5t-54.5 -204.5v-62q0 -139 54.5 -204.5t164.5 -65.5z
M195 828v16l125 140h94l125 -142v-14h-62l-110 113l-109 -113h-63z" />
    <glyph glyph-name="Otilde" unicode="&#xd5;" horiz-adv-x="734" 
d="M367 -8q-152 0 -232 90.5t-80 261.5v62q0 166 80.5 259t231.5 93q152 0 232.5 -91t80.5 -261v-62q0 -166 -81 -259t-232 -93zM367 74q110 0 164.5 65.5t54.5 204.5v62q0 139 -54.5 204.5t-164.5 65.5t-164.5 -65.5t-54.5 -204.5v-62q0 -139 54.5 -204.5t164.5 -65.5z
M195 828v64q47 77 98 77q30 0 81.5 -38.5t66.5 -38.5q18 0 36 13.5t28 26.5t26 37h8v-63q-46 -78 -98 -78q-27 0 -79.5 39t-68.5 39q-17 0 -34 -12.5t-27 -25t-25 -34.5q-3 -4 -4 -6h-8z" />
    <glyph glyph-name="Odieresis" unicode="&#xd6;" horiz-adv-x="734" 
d="M367 -8q-152 0 -232 90.5t-80 261.5v62q0 166 80.5 259t231.5 93q152 0 232.5 -91t80.5 -261v-62q0 -166 -81 -259t-232 -93zM367 74q110 0 164.5 65.5t54.5 204.5v62q0 139 -54.5 204.5t-164.5 65.5t-164.5 -65.5t-54.5 -204.5v-62q0 -139 54.5 -204.5t164.5 -65.5z
M445 828v94h86v-94h-86zM203 828v94h86v-94h-86z" />
    <glyph glyph-name="multiply" unicode="&#xd7;" 
d="M186 185l-56 55l127 127l-127 127l56 56l127 -127l126 127l56 -56l-127 -127l127 -127l-56 -55l-126 127z" />
    <glyph glyph-name="Oslash" unicode="&#xd8;" horiz-adv-x="734" 
d="M55 0v12l67 87q-67 86 -67 245v62q0 166 80.5 259t231.5 93q129 0 210 -70l48 62h55v-12l-68 -87q68 -91 68 -245v-62q0 -166 -81 -259t-232 -93q-131 0 -211 69l-47 -61h-54zM148 344q0 -107 33 -170l342 444q-54 58 -156 58q-110 0 -164.5 -65.5t-54.5 -204.5v-62z
M367 74q110 0 164.5 65.5t54.5 204.5v62q0 102 -32 169l-343 -444q53 -57 156 -57z" />
    <glyph glyph-name="Ugrave" unicode="&#xd9;" horiz-adv-x="719" 
d="M359 -8q-129 0 -201 69.5t-72 196.5v492h94v-492q0 -95 49 -139.5t130 -44.5q82 0 131 44.5t49 139.5v492h94v-492q0 -127 -74.5 -196.5t-199.5 -69.5zM387 828l-141 141v15h98l97 -140v-16h-54z" />
    <glyph glyph-name="Uacute" unicode="&#xda;" horiz-adv-x="719" 
d="M359 -8q-129 0 -201 69.5t-72 196.5v492h94v-492q0 -95 49 -139.5t130 -44.5q82 0 131 44.5t49 139.5v492h94v-492q0 -127 -74.5 -196.5t-199.5 -69.5zM277 828v16l98 140h98v-15l-141 -141h-55z" />
    <glyph glyph-name="Ucircumflex" unicode="&#xdb;" horiz-adv-x="719" 
d="M359 -8q-129 0 -201 69.5t-72 196.5v492h94v-492q0 -95 49 -139.5t130 -44.5q82 0 131 44.5t49 139.5v492h94v-492q0 -127 -74.5 -196.5t-199.5 -69.5zM187 828v16l125 140h94l125 -142v-14h-62l-110 113l-109 -113h-63z" />
    <glyph glyph-name="Udieresis" unicode="&#xdc;" horiz-adv-x="719" 
d="M359 -8q-129 0 -201 69.5t-72 196.5v492h94v-492q0 -95 49 -139.5t130 -44.5q82 0 131 44.5t49 139.5v492h94v-492q0 -127 -74.5 -196.5t-199.5 -69.5zM437 828v94h86v-94h-86zM195 828v94h86v-94h-86z" />
    <glyph glyph-name="Yacute" unicode="&#xdd;" horiz-adv-x="602" 
d="M258 0v301l-238 441v8h97l192 -359l191 359h90v-8l-238 -433v-309h-94zM227 828v16l97 140h98v-15l-141 -141h-54z" />
    <glyph glyph-name="Thorn" unicode="&#xde;" horiz-adv-x="609" 
d="M94 0v750h94v-125h148q227 0 227 -242q0 -120 -61.5 -189t-181.5 -69h-132v-125h-94zM328 543h-140v-336h132q87 0 118 45t31 131q0 85 -30.5 122.5t-110.5 37.5z" />
    <glyph glyph-name="germandbls" unicode="&#xdf;" horiz-adv-x="691" 
d="M437 -8q-81 0 -128 16v78h7q57 -16 114 -16q55 0 86 22.5t31 67.5q0 21 -9 35.5t-20 21t-33 17.5l-55 28q-51 25 -76.5 55t-25.5 81q0 11 2.5 22t9.5 22l12 18.5t16.5 18.5l15.5 15t18.5 16t15.5 13q43 38 43 82q0 22 -11 36.5t-31 20.5t-36 8t-39 2q-42 0 -70.5 -7
t-49.5 -32.5t-21 -69.5v-563h-86v469h-86v78h86v19q0 96 63.5 140t163.5 44q203 0 203 -133q0 -29 -11.5 -54t-23.5 -38t-35 -33q-2 -1 -12 -9.5l-14.5 -12.5t-13 -13t-12.5 -15.5t-7.5 -16.5t-3.5 -19q0 -18 8.5 -32t17.5 -20.5t29 -17.5l35 -20q6 -4 27.5 -15.5
t28.5 -15.5t23 -15t21.5 -20l14 -22.5t11.5 -30.5t3 -37q0 -76 -51 -122t-145 -46z" />
    <glyph glyph-name="agrave" unicode="&#xe0;" horiz-adv-x="590" 
d="M215 -8q-69 0 -112.5 46.5t-43.5 141.5v86q0 124 86 202.5t203 78.5h148v-547h-86v102l-39 -39q-73 -71 -156 -71zM379 156l31 32v281h-62q-90 0 -146.5 -55t-56.5 -148v-86q0 -110 85 -110q63 0 149 86zM338 625l-141 141v15h98l98 -140v-16h-55z" />
    <glyph glyph-name="aacute" unicode="&#xe1;" horiz-adv-x="590" 
d="M215 -8q-69 0 -112.5 46.5t-43.5 141.5v86q0 124 86 202.5t203 78.5h148v-547h-86v102l-39 -39q-73 -71 -156 -71zM379 156l31 32v281h-62q-90 0 -146.5 -55t-56.5 -148v-86q0 -110 85 -110q63 0 149 86zM225 625v16l97 140h98v-15l-141 -141h-54z" />
    <glyph glyph-name="acircumflex" unicode="&#xe2;" horiz-adv-x="590" 
d="M215 -8q-69 0 -112.5 46.5t-43.5 141.5v86q0 124 86 202.5t203 78.5h148v-547h-86v102l-39 -39q-73 -71 -156 -71zM379 156l31 32v281h-62q-90 0 -146.5 -55t-56.5 -148v-86q0 -110 85 -110q63 0 149 86zM131 625v16l125 140h94l125 -142v-14h-63l-109 113l-110 -113h-62
z" />
    <glyph glyph-name="atilde" unicode="&#xe3;" horiz-adv-x="590" 
d="M215 -8q-69 0 -112.5 46.5t-43.5 141.5v86q0 124 86 202.5t203 78.5h148v-547h-86v102l-39 -39q-73 -71 -156 -71zM379 156l31 32v281h-62q-90 0 -146.5 -55t-56.5 -148v-86q0 -110 85 -110q63 0 149 86zM131 625v63q43 78 98 78q29 0 81 -39t67 -39q18 0 36.5 14
t27.5 26t26 38h8v-63q-46 -78 -98 -78q-27 0 -80 39t-68 39q-19 0 -37 -14t-27 -26.5l-26 -37.5h-8z" />
    <glyph glyph-name="adieresis" unicode="&#xe4;" horiz-adv-x="590" 
d="M215 -8q-69 0 -112.5 46.5t-43.5 141.5v86q0 124 86 202.5t203 78.5h148v-547h-86v102l-39 -39q-73 -71 -156 -71zM379 156l31 32v281h-62q-90 0 -146.5 -55t-56.5 -148v-86q0 -110 85 -110q63 0 149 86zM381 625v94h86v-94h-86zM139 625v94h86v-94h-86z" />
    <glyph glyph-name="aring" unicode="&#xe5;" horiz-adv-x="590" 
d="M215 -8q-69 0 -112.5 46.5t-43.5 141.5v86q0 124 86 202.5t203 78.5h148v-547h-86v102l-39 -39q-73 -71 -156 -71zM379 156l31 32v281h-62q-90 0 -146.5 -55t-56.5 -148v-86q0 -110 85 -110q63 0 149 86zM303 625q-56 0 -85 29t-29 73q0 43 29 72t85 29q55 0 84 -29
t29 -72q0 -44 -28.5 -73t-84.5 -29zM303 664q33 0 49.5 18.5t16.5 44.5t-16.5 44t-49.5 18t-50 -18t-17 -44t17 -44.5t50 -18.5z" />
    <glyph glyph-name="ae" unicode="&#xe6;" horiz-adv-x="883" 
d="M215 -8q-69 0 -112.5 46.5t-43.5 141.5v86q0 124 86 202.5t203 78.5h297q86 0 136.5 -38.5t50.5 -117.5q0 -74 -45 -115.5t-127 -41.5h-164v-23q0 -73 40 -107t109 -34q75 0 148 35h8v-78q-76 -35 -156 -35q-172 0 -219 125l-55 -54q-73 -71 -156 -71zM410 312
q0 96 52 157h-114q-90 0 -146.5 -55t-56.5 -148v-86q0 -110 85 -110q63 0 149 86l31 32v124zM496 312v-6h141q62 0 85.5 20.5t23.5 64.5q0 78 -101 78q-149 0 -149 -157z" />
    <glyph glyph-name="ccedilla" unicode="&#xe7;" horiz-adv-x="500" 
d="M293 -8q-109 0 -171.5 60t-62.5 175v93q0 109 70 172t164 63q92 0 156 -39v-141h-78v86q-32 16 -78 16q-64 0 -106 -38.5t-42 -118.5v-93q0 -76 38.5 -116.5t109.5 -40.5q76 0 141 35h7v-78q-72 -35 -148 -35zM162 -188v55h94q55 0 55 35q0 17 -16 35t-35 28v12h54
q27 -12 45 -35.5t18 -46.5q0 -42 -31 -62.5t-78 -20.5h-106z" />
    <glyph glyph-name="egrave" unicode="&#xe8;" horiz-adv-x="531" 
d="M293 -8q-106 0 -170 54t-64 165v109q0 109 65.5 172t168.5 63q86 0 136.5 -39t50.5 -118q0 -73 -45 -114.5t-126 -41.5h-164v-31q0 -141 148 -141q75 0 148 35h8v-78q-24 -11 -69.5 -23t-86.5 -12zM145 320v-7h140q62 0 86 21t24 64q0 79 -102 79q-148 0 -148 -157z
M312 625l-140 141v15h98l97 -140v-16h-55z" />
    <glyph glyph-name="eacute" unicode="&#xe9;" horiz-adv-x="531" 
d="M293 -8q-106 0 -170 54t-64 165v109q0 109 65.5 172t168.5 63q86 0 136.5 -39t50.5 -118q0 -73 -45 -114.5t-126 -41.5h-164v-31q0 -141 148 -141q75 0 148 35h8v-78q-24 -11 -69.5 -23t-86.5 -12zM145 320v-7h140q62 0 86 21t24 64q0 79 -102 79q-148 0 -148 -157z
M203 625v16l98 140h97v-15l-140 -141h-55z" />
    <glyph glyph-name="ecircumflex" unicode="&#xea;" horiz-adv-x="531" 
d="M293 -8q-106 0 -170 54t-64 165v109q0 109 65.5 172t168.5 63q86 0 136.5 -39t50.5 -118q0 -73 -45 -114.5t-126 -41.5h-164v-31q0 -141 148 -141q75 0 148 35h8v-78q-24 -11 -69.5 -23t-86.5 -12zM145 320v-7h140q62 0 86 21t24 64q0 79 -102 79q-148 0 -148 -157z
M113 625v16l125 140h94l125 -142v-14h-62l-110 113l-109 -113h-63z" />
    <glyph glyph-name="edieresis" unicode="&#xeb;" horiz-adv-x="531" 
d="M293 -8q-106 0 -170 54t-64 165v109q0 109 65.5 172t168.5 63q86 0 136.5 -39t50.5 -118q0 -73 -45 -114.5t-126 -41.5h-164v-31q0 -141 148 -141q75 0 148 35h8v-78q-24 -11 -69.5 -23t-86.5 -12zM145 320v-7h140q62 0 86 21t24 64q0 79 -102 79q-148 0 -148 -157z
M363 625v94h86v-94h-86zM121 625v94h86v-94h-86z" />
    <glyph glyph-name="igrave" unicode="&#xec;" horiz-adv-x="289" 
d="M109 0v469h-93v78h179v-547h-86zM160 625l-140 141v15h97l98 -140v-16h-55z" />
    <glyph glyph-name="iacute" unicode="&#xed;" horiz-adv-x="289" 
d="M109 0v469h-93v78h179v-547h-86zM51 625v16l97 140h98v-15l-141 -141h-54z" />
    <glyph glyph-name="icircumflex" unicode="&#xee;" horiz-adv-x="289" 
d="M109 0v469h-93v78h179v-547h-86zM-47 625v16l125 140h94l125 -142v-14h-63l-109 113l-109 -113h-63z" />
    <glyph glyph-name="idieresis" unicode="&#xef;" horiz-adv-x="289" 
d="M109 0v469h-93v78h179v-547h-86zM211 625v94h86v-94h-86zM-31 625v94h86v-94h-86z" />
    <glyph glyph-name="eth" unicode="&#xf0;" horiz-adv-x="590" 
d="M559 621h-63v-621h-86v102l-39 -39q-73 -71 -156 -71q-69 0 -112.5 46.5t-43.5 141.5v86q0 124 86 202.5t203 78.5h62v74h-125v74h125v55h86v-55h63v-74zM379 156l31 32v281h-62q-90 0 -146.5 -55t-56.5 -148v-86q0 -110 85 -110q63 0 149 86z" />
    <glyph glyph-name="ntilde" unicode="&#xf1;" horiz-adv-x="613" 
d="M94 0v547h86v-102l39 39q71 71 156 71q148 0 148 -188v-367h-86v367q0 110 -85 110q-55 0 -141 -86l-31 -32v-359h-86zM135 625v63q43 78 97 78q30 0 82 -39t67 -39q18 0 36.5 14t27.5 26t26 38h8v-63q-46 -78 -98 -78q-27 0 -80 39t-69 39q-18 0 -36.5 -14t-27 -26
t-25.5 -38h-8z" />
    <glyph glyph-name="ograve" unicode="&#xf2;" horiz-adv-x="586" 
d="M293 -8q-238 0 -238 289q0 127 60.5 200.5t177.5 73.5q121 0 179.5 -72.5t58.5 -201.5q0 -137 -60 -213t-178 -76zM293 70q152 0 152 211q0 97 -34 146.5t-118 49.5t-118 -49.5t-34 -146.5q0 -211 152 -211zM316 625l-140 141v15h97l98 -140v-16h-55z" />
    <glyph glyph-name="oacute" unicode="&#xf3;" horiz-adv-x="586" 
d="M293 -8q-238 0 -238 289q0 127 60.5 200.5t177.5 73.5q121 0 179.5 -72.5t58.5 -201.5q0 -137 -60 -213t-178 -76zM293 70q152 0 152 211q0 97 -34 146.5t-118 49.5t-118 -49.5t-34 -146.5q0 -211 152 -211zM211 625v16l98 140h97v-15l-140 -141h-55z" />
    <glyph glyph-name="ocircumflex" unicode="&#xf4;" horiz-adv-x="586" 
d="M293 -8q-238 0 -238 289q0 127 60.5 200.5t177.5 73.5q121 0 179.5 -72.5t58.5 -201.5q0 -137 -60 -213t-178 -76zM293 70q152 0 152 211q0 97 -34 146.5t-118 49.5t-118 -49.5t-34 -146.5q0 -211 152 -211zM121 625v16l125 140h94l125 -142v-14h-63l-109 113l-109 -113
h-63z" />
    <glyph glyph-name="otilde" unicode="&#xf5;" horiz-adv-x="586" 
d="M293 -8q-238 0 -238 289q0 127 60.5 200.5t177.5 73.5q121 0 179.5 -72.5t58.5 -201.5q0 -137 -60 -213t-178 -76zM293 70q152 0 152 211q0 97 -34 146.5t-118 49.5t-118 -49.5t-34 -146.5q0 -211 152 -211zM121 625v63q46 78 98 78q29 0 81 -39t67 -39q18 0 36 13.5
t28.5 27t25.5 37.5h8v-63q-46 -78 -98 -78q-27 0 -80 39t-68 39q-18 0 -36.5 -14t-28 -27t-25.5 -37h-8z" />
    <glyph glyph-name="odieresis" unicode="&#xf6;" horiz-adv-x="586" 
d="M293 -8q-238 0 -238 289q0 127 60.5 200.5t177.5 73.5q121 0 179.5 -72.5t58.5 -201.5q0 -137 -60 -213t-178 -76zM293 70q152 0 152 211q0 97 -34 146.5t-118 49.5t-118 -49.5t-34 -146.5q0 -211 152 -211zM371 625v94h86v-94h-86zM129 625v94h86v-94h-86z" />
    <glyph glyph-name="divide" unicode="&#xf7;" 
d="M273 469v78h79v-78h-79zM94 328v78h437v-78h-437zM273 188v78h79v-78h-79z" />
    <glyph glyph-name="oslash" unicode="&#xf8;" horiz-adv-x="586" 
d="M55 0v12l50 64q-50 70 -50 205q0 127 60.5 200.5t177.5 73.5q93 0 153 -47l31 39h54v-12l-50 -63q50 -69 50 -191q0 -137 -60 -213t-178 -76q-97 0 -153 47l-31 -39h-54zM141 281q0 -85 22 -133l233 296q-38 33 -103 33q-84 0 -118 -49.5t-34 -146.5zM293 70
q152 0 152 211q0 73 -19 120l-234 -296q38 -35 101 -35z" />
    <glyph glyph-name="ugrave" unicode="&#xf9;" horiz-adv-x="613" 
d="M238 -8q-148 0 -148 188v367h86v-367q0 -110 86 -110q54 0 140 86l32 32v359h86v-547h-86v102l-39 -39q-71 -71 -157 -71zM334 625l-141 141v15h98l98 -140v-16h-55z" />
    <glyph glyph-name="uacute" unicode="&#xfa;" horiz-adv-x="613" 
d="M238 -8q-148 0 -148 188v367h86v-367q0 -110 86 -110q54 0 140 86l32 32v359h86v-547h-86v102l-39 -39q-71 -71 -157 -71zM225 625v16l97 140h98v-15l-141 -141h-54z" />
    <glyph glyph-name="ucircumflex" unicode="&#xfb;" horiz-adv-x="613" 
d="M238 -8q-148 0 -148 188v367h86v-367q0 -110 86 -110q54 0 140 86l32 32v359h86v-547h-86v102l-39 -39q-71 -71 -157 -71zM135 625v16l125 140h94l125 -142v-14h-63l-109 113l-110 -113h-62z" />
    <glyph glyph-name="udieresis" unicode="&#xfc;" horiz-adv-x="613" 
d="M238 -8q-148 0 -148 188v367h86v-367q0 -110 86 -110q54 0 140 86l32 32v359h86v-547h-86v102l-39 -39q-71 -71 -157 -71zM385 625v94h86v-94h-86zM143 625v94h86v-94h-86z" />
    <glyph glyph-name="yacute" unicode="&#xfd;" horiz-adv-x="613" 
d="M129 -188v79h94q110 0 160.5 46t50.5 141v31l-8 -4q-87 -42 -172 -42q-71 0 -117.5 48t-46.5 147v289h86v-289q0 -117 101 -117q79 0 157 39v367h86v-461q0 -138 -77 -206t-220 -68h-94zM225 625v16l97 140h98v-15l-141 -141h-54z" />
    <glyph glyph-name="thorn" unicode="&#xfe;" horiz-adv-x="590" 
d="M94 -188v938h86v-305l39 39q71 71 156 71q69 0 112.5 -46.5t43.5 -141.5v-86q0 -124 -86 -202.5t-203 -78.5h-62v-188h-86zM211 391l-31 -32v-281h62q89 0 146 55.5t57 147.5v86q0 110 -86 110q-62 0 -148 -86z" />
    <glyph glyph-name="ydieresis" unicode="&#xff;" horiz-adv-x="613" 
d="M129 -188v79h94q110 0 160.5 46t50.5 141v31l-8 -4q-87 -42 -172 -42q-71 0 -117.5 48t-46.5 147v289h86v-289q0 -117 101 -117q79 0 157 39v367h86v-461q0 -138 -77 -206t-220 -68h-94zM385 625v94h86v-94h-86zM143 625v94h86v-94h-86z" />
    <glyph glyph-name="Amacron" unicode="&#x100;" horiz-adv-x="672" 
d="M23 0v8q27 112 86 312q32 110 84.5 244.5t79.5 185.5h125q27 -50 79.5 -184.5t84.5 -245.5q56 -185 86 -312v-8h-93q-23 97 -47 184h-345q-15 -56 -46 -184h-94zM203 320q-12 -38 -16 -54h297l-7 25.5t-8 28.5q-65 222 -133 352q-68 -130 -133 -352zM211 828v64h250v-64
h-250z" />
    <glyph glyph-name="amacron" unicode="&#x101;" horiz-adv-x="590" 
d="M215 -8q-69 0 -112.5 46.5t-43.5 141.5v86q0 124 86 202.5t203 78.5h148v-547h-86v102l-39 -39q-73 -71 -156 -71zM379 156l31 32v281h-62q-90 0 -146.5 -55t-56.5 -148v-86q0 -110 85 -110q63 0 149 86zM174 625v63h250v-63h-250z" />
    <glyph glyph-name="Abreve" unicode="&#x102;" horiz-adv-x="672" 
d="M23 0v8q27 112 86 312q32 110 84.5 244.5t79.5 185.5h125q27 -50 79.5 -184.5t84.5 -245.5q56 -185 86 -312v-8h-93q-23 97 -47 184h-345q-15 -56 -46 -184h-94zM203 320q-12 -38 -16 -54h297l-7 25.5t-8 28.5q-65 222 -133 352q-68 -130 -133 -352zM336 828
q-77 0 -116.5 40.5t-39.5 100.5h47q0 -36 32.5 -56.5t76.5 -20.5t76.5 20.5t32.5 56.5h47q0 -60 -39.5 -100.5t-116.5 -40.5z" />
    <glyph glyph-name="abreve" unicode="&#x103;" horiz-adv-x="590" 
d="M215 -8q-69 0 -112.5 46.5t-43.5 141.5v86q0 124 86 202.5t203 78.5h148v-547h-86v102l-39 -39q-73 -71 -156 -71zM379 156l31 32v281h-62q-90 0 -146.5 -55t-56.5 -148v-86q0 -110 85 -110q63 0 149 86zM303 625q-78 0 -117.5 40t-39.5 101h47q0 -36 33 -57t77 -21
t76.5 21t32.5 57h47q0 -61 -39.5 -101t-116.5 -40z" />
    <glyph glyph-name="Aogonek" unicode="&#x104;" horiz-adv-x="672" 
d="M23 0v8q27 112 86 312q32 110 84.5 244.5t79.5 185.5h125q27 -50 79.5 -184.5t84.5 -245.5q56 -185 86 -312v-8h-93q-23 97 -47 184h-345q-15 -56 -46 -184h-94zM203 320q-12 -38 -16 -54h297l-7 25.5t-8 28.5q-65 222 -133 352q-68 -130 -133 -352zM625 -188
q-48 0 -78.5 20.5t-30.5 62.5q0 23 18 46.5t44 35.5h55v-12q-20 -10 -35.5 -28t-15.5 -35q0 -35 55 -35h93v-55h-105z" />
    <glyph glyph-name="aogonek" unicode="&#x105;" horiz-adv-x="590" 
d="M215 -8q-69 0 -112.5 46.5t-43.5 141.5v86q0 124 86 202.5t203 78.5h148v-547h-86v102l-39 -39q-73 -71 -156 -71zM379 156l31 32v281h-62q-90 0 -146.5 -55t-56.5 -148v-86q0 -110 85 -110q63 0 149 86zM473 -188q-48 0 -79 20.5t-31 62.5q0 23 18 46.5t45 35.5h54v-12
q-19 -10 -34.5 -28t-15.5 -35q0 -35 54 -35h94v-55h-105z" />
    <glyph glyph-name="Cacute" unicode="&#x106;" horiz-adv-x="641" 
d="M383 -8q-164 0 -246 91.5t-82 244.5v94q0 162 96 249t263 87q100 0 172 -35v-168h-86v109q-47 12 -102 12q-113 0 -181.5 -62t-68.5 -192v-94q0 -122 61.5 -188t173.5 -66h47q66 0 148 31h8v-78q-24 -11 -69.5 -23t-86.5 -12h-47zM301 828v16l97 140h98v-15l-141 -141
h-54z" />
    <glyph glyph-name="cacute" unicode="&#x107;" horiz-adv-x="500" 
d="M293 -8q-109 0 -171.5 60t-62.5 175v93q0 109 70 172t164 63q92 0 156 -39v-141h-78v86q-32 16 -78 16q-64 0 -106 -38.5t-42 -118.5v-93q0 -76 38.5 -116.5t109.5 -40.5q76 0 141 35h7v-78q-72 -35 -148 -35zM211 625v16l98 140h97v-15l-140 -141h-55z" />
    <glyph glyph-name="Ccircumflex" unicode="&#x108;" horiz-adv-x="641" 
d="M383 -8q-164 0 -246 91.5t-82 244.5v94q0 162 96 249t263 87q100 0 172 -35v-168h-86v109q-47 12 -102 12q-113 0 -181.5 -62t-68.5 -192v-94q0 -122 61.5 -188t173.5 -66h47q66 0 148 31h8v-78q-24 -11 -69.5 -23t-86.5 -12h-47zM203 828v16l125 140h94l125 -142v-14
h-63l-109 113l-109 -113h-63z" />
    <glyph glyph-name="ccircumflex" unicode="&#x109;" horiz-adv-x="500" 
d="M293 -8q-109 0 -171.5 60t-62.5 175v93q0 109 70 172t164 63q92 0 156 -39v-141h-78v86q-32 16 -78 16q-64 0 -106 -38.5t-42 -118.5v-93q0 -76 38.5 -116.5t109.5 -40.5q76 0 141 35h7v-78q-72 -35 -148 -35zM105 625v16l125 140h94l125 -142v-14h-62l-110 113
l-109 -113h-63z" />
    <glyph glyph-name="Cdotaccent" unicode="&#x10a;" horiz-adv-x="641" 
d="M383 -8q-164 0 -246 91.5t-82 244.5v94q0 162 96 249t263 87q100 0 172 -35v-168h-86v109q-47 12 -102 12q-113 0 -181.5 -62t-68.5 -192v-94q0 -122 61.5 -188t173.5 -66h47q66 0 148 31h8v-78q-24 -11 -69.5 -23t-86.5 -12h-47zM332 828v94h86v-94h-86z" />
    <glyph glyph-name="cdotaccent" unicode="&#x10b;" horiz-adv-x="500" 
d="M293 -8q-109 0 -171.5 60t-62.5 175v93q0 109 70 172t164 63q92 0 156 -39v-141h-78v86q-32 16 -78 16q-64 0 -106 -38.5t-42 -118.5v-93q0 -76 38.5 -116.5t109.5 -40.5q76 0 141 35h7v-78q-72 -35 -148 -35zM242 625v94h86v-94h-86z" />
    <glyph glyph-name="Ccaron" unicode="&#x10c;" horiz-adv-x="641" 
d="M383 -8q-164 0 -246 91.5t-82 244.5v94q0 162 96 249t263 87q100 0 172 -35v-168h-86v109q-47 12 -102 12q-113 0 -181.5 -62t-68.5 -192v-94q0 -122 61.5 -188t173.5 -66h47q66 0 148 31h8v-78q-24 -11 -69.5 -23t-86.5 -12h-47zM324 828l-125 143v13h63l109 -113
l109 113h63v-15l-125 -141h-94z" />
    <glyph glyph-name="ccaron" unicode="&#x10d;" horiz-adv-x="500" 
d="M293 -8q-109 0 -171.5 60t-62.5 175v93q0 109 70 172t164 63q92 0 156 -39v-141h-78v86q-32 16 -78 16q-64 0 -106 -38.5t-42 -118.5v-93q0 -76 38.5 -116.5t109.5 -40.5q76 0 141 35h7v-78q-72 -35 -148 -35zM227 625l-125 143v13h62l109 -113l110 113h62v-15l-125 -141
h-93z" />
    <glyph glyph-name="Dcaron" unicode="&#x10e;" horiz-adv-x="711" 
d="M94 0v750h222q169 0 250.5 -78t81.5 -234v-110q0 -154 -76.5 -241t-239.5 -87h-238zM188 82h144q118 0 170.5 60.5t52.5 185.5v110q0 121 -59.5 175.5t-179.5 54.5h-128v-586zM270 828l-125 143v13h62l109 -113l110 113h62v-15l-125 -141h-93z" />
    <glyph glyph-name="dcaron" unicode="&#x10f;" horiz-adv-x="590" 
d="M215 -8q-69 0 -112.5 46.5t-43.5 141.5v86q0 124 86 202.5t203 78.5h62v203h86v-750h-86v102l-39 -39q-73 -71 -156 -71zM379 156l31 32v281h-62q-90 0 -146.5 -55t-56.5 -148v-86q0 -110 85 -110q63 0 149 86zM543 594l43 156h86v-47l-70 -109h-59z" />
    <glyph glyph-name="Dcroat" unicode="&#x110;" horiz-adv-x="711" 
d="M94 0v355h-63v83h63v312h222q169 0 250.5 -78t81.5 -234v-110q0 -154 -76.5 -241t-239.5 -87h-238zM188 82h144q118 0 170.5 60.5t52.5 185.5v110q0 121 -59.5 175.5t-179.5 54.5h-128v-230h125v-83h-125v-273z" />
    <glyph glyph-name="dcroat" unicode="&#x111;" horiz-adv-x="590" 
d="M559 621h-63v-621h-86v102l-39 -39q-73 -71 -156 -71q-69 0 -112.5 46.5t-43.5 141.5v86q0 124 86 202.5t203 78.5h62v74h-125v74h125v55h86v-55h63v-74zM379 156l31 32v281h-62q-90 0 -146.5 -55t-56.5 -148v-86q0 -110 85 -110q63 0 149 86z" />
    <glyph glyph-name="Emacron" unicode="&#x112;" horiz-adv-x="578" 
d="M297 0q-203 0 -203 203v547h422v-82h-328v-230h296v-83h-296v-160q0 -113 101 -113h227v-82h-219zM184 828v64h250v-64h-250z" />
    <glyph glyph-name="emacron" unicode="&#x113;" horiz-adv-x="531" 
d="M293 -8q-106 0 -170 54t-64 165v109q0 109 65.5 172t168.5 63q86 0 136.5 -39t50.5 -118q0 -73 -45 -114.5t-126 -41.5h-164v-31q0 -141 148 -141q75 0 148 35h8v-78q-24 -11 -69.5 -23t-86.5 -12zM145 320v-7h140q62 0 86 21t24 64q0 79 -102 79q-148 0 -148 -157z
M152 625v63h250v-63h-250z" />
    <glyph glyph-name="Ebreve" unicode="&#x114;" horiz-adv-x="578" 
d="M297 0q-203 0 -203 203v547h422v-82h-328v-230h296v-83h-296v-160q0 -113 101 -113h227v-82h-219zM305 828q-78 0 -117.5 40.5t-39.5 100.5h47q0 -36 32.5 -56.5t77.5 -20.5q44 0 76.5 20.5t32.5 56.5h47q0 -60 -39.5 -100.5t-116.5 -40.5z" />
    <glyph glyph-name="ebreve" unicode="&#x115;" horiz-adv-x="531" 
d="M293 -8q-106 0 -170 54t-64 165v109q0 109 65.5 172t168.5 63q86 0 136.5 -39t50.5 -118q0 -73 -45 -114.5t-126 -41.5h-164v-31q0 -141 148 -141q75 0 148 35h8v-78q-24 -11 -69.5 -23t-86.5 -12zM145 320v-7h140q62 0 86 21t24 64q0 79 -102 79q-148 0 -148 -157z
M270 625q-78 0 -117.5 40t-39.5 101h47q0 -36 33 -57t77 -21t76.5 21t32.5 57h47q0 -61 -39.5 -101t-116.5 -40z" />
    <glyph glyph-name="Edotaccent" unicode="&#x116;" horiz-adv-x="578" 
d="M297 0q-203 0 -203 203v547h422v-82h-328v-230h296v-83h-296v-160q0 -113 101 -113h227v-82h-219zM270 828v94h85v-94h-85z" />
    <glyph glyph-name="edotaccent" unicode="&#x117;" horiz-adv-x="531" 
d="M293 -8q-106 0 -170 54t-64 165v109q0 109 65.5 172t168.5 63q86 0 136.5 -39t50.5 -118q0 -73 -45 -114.5t-126 -41.5h-164v-31q0 -141 148 -141q75 0 148 35h8v-78q-24 -11 -69.5 -23t-86.5 -12zM145 320v-7h140q62 0 86 21t24 64q0 79 -102 79q-148 0 -148 -157z
M234 625v94h86v-94h-86z" />
    <glyph glyph-name="Eogonek" unicode="&#x118;" horiz-adv-x="578" 
d="M297 0q-203 0 -203 203v547h422v-82h-328v-230h296v-83h-296v-160q0 -113 101 -113h227v-82h-219zM465 -188q-48 0 -79 20.5t-31 62.5q0 23 18 46.5t45 35.5h55v-12q-20 -10 -35.5 -28t-15.5 -35q0 -35 55 -35h93v-55h-105z" />
    <glyph glyph-name="eogonek" unicode="&#x119;" horiz-adv-x="531" 
d="M293 -8q-106 0 -170 54t-64 165v109q0 109 65.5 172t168.5 63q86 0 136.5 -39t50.5 -118q0 -73 -45 -114.5t-126 -41.5h-164v-31q0 -141 148 -141q75 0 148 35h8v-78q-24 -11 -69.5 -23t-86.5 -12zM145 320v-7h140q62 0 86 21t24 64q0 79 -102 79q-148 0 -148 -157z
M309 -188q-48 0 -79 20.5t-31 62.5q0 23 18 46.5t45 35.5h54v-12q-19 -10 -34.5 -28t-15.5 -35q0 -35 54 -35h94v-55h-105z" />
    <glyph glyph-name="Ecaron" unicode="&#x11a;" horiz-adv-x="578" 
d="M297 0q-203 0 -203 203v547h422v-82h-328v-230h296v-83h-296v-160q0 -113 101 -113h227v-82h-219zM258 828l-125 143v13h62l110 -113l109 113h63v-15l-125 -141h-94z" />
    <glyph glyph-name="ecaron" unicode="&#x11b;" horiz-adv-x="531" 
d="M293 -8q-106 0 -170 54t-64 165v109q0 109 65.5 172t168.5 63q86 0 136.5 -39t50.5 -118q0 -73 -45 -114.5t-126 -41.5h-164v-31q0 -141 148 -141q75 0 148 35h8v-78q-24 -11 -69.5 -23t-86.5 -12zM145 320v-7h140q62 0 86 21t24 64q0 79 -102 79q-148 0 -148 -157z
M230 625l-125 143v13h63l109 -113l110 113h62v-15l-125 -141h-94z" />
    <glyph glyph-name="Gcircumflex" unicode="&#x11c;" horiz-adv-x="695" 
d="M406 -8q-165 0 -254.5 92.5t-89.5 243.5v102q0 158 99.5 243t260.5 85q54 0 111.5 -11t83.5 -24v-78h-8q-101 31 -187 31q-121 0 -193.5 -58.5t-72.5 -187.5v-102q0 -122 66 -188t184 -66h31q49 0 94 12v199h-156v82h242v-336q-22 -12 -79.5 -25.5t-100.5 -13.5h-31z
M219 828v16l125 140h93l125 -142v-14h-62l-109 113l-110 -113h-62z" />
    <glyph glyph-name="gcircumflex" unicode="&#x11d;" horiz-adv-x="590" 
d="M105 -188v79h94q113 0 162 39t49 133v23l-18 -10q-88 -45 -162 -45t-122.5 51t-48.5 148v36q0 130 78.5 205.5t194.5 75.5h164v-477q0 -136 -75.5 -197t-221.5 -61h-94zM395 148l15 8v313h-78q-87 0 -137 -54.5t-50 -148.5v-36q0 -121 101 -121q69 0 149 39zM131 625v16
l125 140h94l125 -142v-14h-63l-109 113l-110 -113h-62z" />
    <glyph glyph-name="Gbreve" unicode="&#x11e;" horiz-adv-x="695" 
d="M406 -8q-165 0 -254.5 92.5t-89.5 243.5v102q0 158 99.5 243t260.5 85q54 0 111.5 -11t83.5 -24v-78h-8q-101 31 -187 31q-121 0 -193.5 -58.5t-72.5 -187.5v-102q0 -122 66 -188t184 -66h31q49 0 94 12v199h-156v82h242v-336q-22 -12 -79.5 -25.5t-100.5 -13.5h-31z
M387 828q-78 0 -117.5 40.5t-39.5 100.5h47q0 -36 32.5 -56.5t77.5 -20.5q44 0 76.5 20.5t32.5 56.5h47q0 -60 -39.5 -100.5t-116.5 -40.5z" />
    <glyph glyph-name="gbreve" unicode="&#x11f;" horiz-adv-x="590" 
d="M105 -188v79h94q113 0 162 39t49 133v23l-18 -10q-88 -45 -162 -45t-122.5 51t-48.5 148v36q0 130 78.5 205.5t194.5 75.5h164v-477q0 -136 -75.5 -197t-221.5 -61h-94zM395 148l15 8v313h-78q-87 0 -137 -54.5t-50 -148.5v-36q0 -121 101 -121q69 0 149 39zM303 625
q-78 0 -117.5 40t-39.5 101h47q0 -36 33 -57t77 -21t76.5 21t32.5 57h47q0 -61 -39.5 -101t-116.5 -40z" />
    <glyph glyph-name="Gdotaccent" unicode="&#x120;" horiz-adv-x="695" 
d="M406 -8q-165 0 -254.5 92.5t-89.5 243.5v102q0 158 99.5 243t260.5 85q54 0 111.5 -11t83.5 -24v-78h-8q-101 31 -187 31q-121 0 -193.5 -58.5t-72.5 -187.5v-102q0 -122 66 -188t184 -66h31q49 0 94 12v199h-156v82h242v-336q-22 -12 -79.5 -25.5t-100.5 -13.5h-31z
M352 828v94h85v-94h-85z" />
    <glyph glyph-name="gdotaccent" unicode="&#x121;" horiz-adv-x="590" 
d="M105 -188v79h94q113 0 162 39t49 133v23l-18 -10q-88 -45 -162 -45t-122.5 51t-48.5 148v36q0 130 78.5 205.5t194.5 75.5h164v-477q0 -136 -75.5 -197t-221.5 -61h-94zM395 148l15 8v313h-78q-87 0 -137 -54.5t-50 -148.5v-36q0 -121 101 -121q69 0 149 39zM264 625v94
h86v-94h-86z" />
    <glyph glyph-name="Gcommaaccent" unicode="&#x122;" horiz-adv-x="695" 
d="M406 -8q-165 0 -254.5 92.5t-89.5 243.5v102q0 158 99.5 243t260.5 85q54 0 111.5 -11t83.5 -24v-78h-8q-101 31 -187 31q-121 0 -193.5 -58.5t-72.5 -187.5v-102q0 -122 66 -188t184 -66h31q49 0 94 12v199h-156v82h242v-336q-22 -12 -79.5 -25.5t-100.5 -13.5h-31z
M307 -195l43 156h86v-48l-71 -108h-58z" />
    <glyph glyph-name="gcommaaccent" unicode="&#x123;" horiz-adv-x="590" 
d="M105 -188v79h94q113 0 162 39t49 133v23l-18 -10q-88 -45 -162 -45t-122.5 51t-48.5 148v36q0 130 78.5 205.5t194.5 75.5h164v-477q0 -136 -75.5 -197t-221.5 -61h-94zM395 148l15 8v313h-78q-87 0 -137 -54.5t-50 -148.5v-36q0 -121 101 -121q69 0 149 39zM391 750
l-43 -156h-86v47l70 109h59z" />
    <glyph glyph-name="Hcircumflex" unicode="&#x124;" horiz-adv-x="742" 
d="M94 0v750h94v-312h367v312h93v-750h-93v355h-367v-355h-94zM199 828v16l125 140h94l125 -142v-14h-63l-109 113l-109 -113h-63z" />
    <glyph glyph-name="hcircumflex" unicode="&#x125;" horiz-adv-x="613" 
d="M438 0v367q0 110 -86 110q-55 0 -141 -86l-31 -32v-359h-86v750h86v-305l39 39q71 71 156 71q148 0 148 -188v-367h-85zM-35 828v16l125 140h94l125 -142v-14h-63l-109 113l-110 -113h-62z" />
    <glyph glyph-name="Hbar" unicode="&#x126;" horiz-adv-x="742" 
d="M727 562h-79v-562h-93v355h-367v-355h-94v562h-78v79h78v109h94v-109h367v109h93v-109h79v-79zM188 438h367v124h-367v-124z" />
    <glyph glyph-name="hbar" unicode="&#x127;" horiz-adv-x="613" 
d="M438 0v367q0 110 -86 110q-55 0 -141 -86l-31 -32v-359h-86v621h-63v66h63v63h86v-63h125v-66h-125v-176l39 39q71 71 156 71q148 0 148 -188v-367h-85z" />
    <glyph glyph-name="Itilde" unicode="&#x128;" horiz-adv-x="281" 
d="M94 0v750h93v-750h-93zM-31 828v64q44 77 97 77q30 0 82 -38.5t67 -38.5q18 0 36.5 14t27 25.5l26.5 37.5h7v-63q-43 -78 -97 -78q-27 0 -80 39t-69 39q-18 0 -36.5 -14t-27 -26t-25.5 -38h-8z" />
    <glyph glyph-name="itilde" unicode="&#x129;" horiz-adv-x="289" 
d="M109 0v469h-93v78h179v-547h-86zM-39 625v63q46 78 98 78q29 0 81 -39t67 -39q18 0 36.5 14t27.5 26t26 38h8v-63q-46 -78 -98 -78q-27 0 -80 39t-68 39q-18 0 -36.5 -14t-28 -27t-25.5 -37h-8z" />
    <glyph glyph-name="Imacron" unicode="&#x12a;" horiz-adv-x="281" 
d="M94 0v750h93v-750h-93zM16 828v64h250v-64h-250z" />
    <glyph glyph-name="imacron" unicode="&#x12b;" horiz-adv-x="289" 
d="M109 0v469h-93v78h179v-547h-86zM-12 625v63h250v-63h-250z" />
    <glyph glyph-name="Ibreve" unicode="&#x12c;" horiz-adv-x="281" 
d="M94 0v750h93v-750h-93zM141 828q-78 0 -117.5 40.5t-39.5 100.5h47q0 -36 32.5 -56.5t77.5 -20.5q44 0 76.5 20.5t32.5 56.5h47q0 -60 -39.5 -100.5t-116.5 -40.5z" />
    <glyph glyph-name="ibreve" unicode="&#x12d;" horiz-adv-x="289" 
d="M109 0v469h-93v78h179v-547h-86zM141 625q-78 0 -117.5 40t-39.5 101h47q0 -36 33 -57t77 -21t76.5 21t32.5 57h47q0 -61 -39.5 -101t-116.5 -40z" />
    <glyph glyph-name="Iogonek" unicode="&#x12e;" horiz-adv-x="281" 
d="M94 0v750h93v-750h-93zM161 -188q-47 0 -78 20.5t-31 62.5q0 23 18 46.5t44 35.5h55v-12q-19 -10 -35 -28t-16 -35q0 -35 55 -35h94v-55h-106z" />
    <glyph glyph-name="iogonek" unicode="&#x12f;" horiz-adv-x="289" 
d="M109 656v94h86v-94h-86zM109 0v469h-93v78h179v-547h-86zM173 -188q-48 0 -79 20.5t-31 62.5q0 23 18 46.5t45 35.5h55v-12q-20 -10 -35.5 -28t-15.5 -35q0 -35 55 -35h93v-55h-105z" />
    <glyph glyph-name="Idotaccent" unicode="&#x130;" horiz-adv-x="281" 
d="M94 0v750h93v-750h-93zM98 828v94h86v-94h-86z" />
    <glyph glyph-name="dotlessi" unicode="&#x131;" horiz-adv-x="289" 
d="M109 0v469h-93v78h179v-547h-86z" />
    <glyph glyph-name="IJ" unicode="&#x132;" horiz-adv-x="691" 
d="M94 0v750h94v-750h-94zM301 0v82h78q59 0 92 36.5t33 100.5v449h-188v82h282v-531q0 -100 -59.5 -159.5t-159.5 -59.5h-78z" />
    <glyph glyph-name="ij" unicode="&#x133;" horiz-adv-x="570" 
d="M109 656v94h86v-94h-86zM109 0v469h-93v78h179v-547h-86zM391 656v94h86v-94h-86zM219 -188v79h39q73 0 103 38t30 118v422h-94v78h180v-484q0 -130 -56.5 -190.5t-178.5 -60.5h-23z" />
    <glyph glyph-name="Jcircumflex" unicode="&#x134;" horiz-adv-x="453" 
d="M47 0v82h94q59 0 92 36.5t33 100.5v449h-188v82h281v-531q0 -100 -59.5 -159.5t-158.5 -59.5h-94zM55 828v16l125 140h93l125 -142v-14h-62l-109 113l-110 -113h-62z" />
    <glyph glyph-name="jcircumflex" unicode="&#x135;" horiz-adv-x="297" 
d="M-55 -188v79h39q74 0 103.5 38t29.5 118v422h-94v78h180v-484q0 -130 -56 -190.5t-178 -60.5h-24zM-31 625v16l125 140h93l125 -142v-14h-62l-109 113l-110 -113h-62z" />
    <glyph glyph-name="Kcommaaccent" unicode="&#x136;" horiz-adv-x="641" 
d="M94 0v750h94v-320h46l285 320h98v-8l-308 -347l316 -387v-8h-105l-290 352h-42v-352h-94zM240 -195l43 156h86v-48l-70 -108h-59z" />
    <glyph glyph-name="kcommaaccent" unicode="&#x137;" horiz-adv-x="539" 
d="M94 0v750h86v-414h54l180 211h98v-8l-207 -238l215 -293v-8h-98l-188 258h-54v-258h-86zM197 -195l43 156h86v-48l-70 -108h-59z" />
    <glyph glyph-name="Lacute" unicode="&#x139;" horiz-adv-x="516" 
d="M297 0q-100 0 -151.5 51.5t-51.5 151.5v547h94v-555q0 -113 101 -113h211v-82h-203zM117 828v16l98 140h97v-15l-140 -141h-55z" />
    <glyph glyph-name="lacute" unicode="&#x13a;" horiz-adv-x="273" 
d="M94 0v672h-94v78h180v-750h-86zM51 828v16l97 140h98v-15l-141 -141h-54z" />
    <glyph glyph-name="Lcommaaccent" unicode="&#x13b;" horiz-adv-x="516" 
d="M297 0q-100 0 -151.5 51.5t-51.5 151.5v547h94v-555q0 -113 101 -113h211v-82h-203zM232 -195l43 156h86v-48l-70 -108h-59z" />
    <glyph glyph-name="lcommaaccent" unicode="&#x13c;" horiz-adv-x="273" 
d="M94 0v672h-94v78h180v-750h-86zM49 -195l43 156h86v-48l-71 -108h-58z" />
    <glyph glyph-name="Lcaron" unicode="&#x13d;" horiz-adv-x="516" 
d="M297 0q-100 0 -151.5 51.5t-51.5 151.5v547h94v-555q0 -113 101 -113h211v-82h-203zM297 594l43 156h86v-47l-71 -109h-58z" />
    <glyph glyph-name="lcaron" unicode="&#x13e;" horiz-adv-x="273" 
d="M94 0v672h-94v78h180v-750h-86zM227 594l43 156h85v-47l-70 -109h-58z" />
    <glyph glyph-name="Ldot" unicode="&#x13f;" horiz-adv-x="516" 
d="M297 0q-100 0 -151.5 51.5t-51.5 151.5v547h94v-555q0 -113 101 -113h211v-82h-203zM297 375v94h86v-94h-86z" />
    <glyph glyph-name="ldot" unicode="&#x140;" horiz-adv-x="270" 
d="M94 0v672h-94v78h180v-750h-86zM227 375v94h85v-94h-85z" />
    <glyph glyph-name="Lslash" unicode="&#x141;" horiz-adv-x="516" 
d="M395 480l-207 -114v-171q0 -113 101 -113h211v-82h-203q-100 0 -151.5 51.5t-51.5 151.5v110l-67 -36h-7v67l74 41v365h94v-313l199 110h8v-67z" />
    <glyph glyph-name="lslash" unicode="&#x142;" horiz-adv-x="273" 
d="M254 492l-74 -60v-432h-86v361l-71 -56h-7v66l78 64v237h-94v78h180v-246l66 55h8v-67z" />
    <glyph glyph-name="Nacute" unicode="&#x143;" horiz-adv-x="750" 
d="M94 0v750h62l407 -555v555h93v-750h-62l-406 555v-555h-94zM305 828v16l97 140h98v-15l-141 -141h-54z" />
    <glyph glyph-name="nacute" unicode="&#x144;" horiz-adv-x="613" 
d="M94 0v547h86v-102l39 39q71 71 156 71q148 0 148 -188v-367h-86v367q0 110 -85 110q-55 0 -141 -86l-31 -32v-359h-86zM225 625v16l97 140h98v-15l-141 -141h-54z" />
    <glyph glyph-name="Ncommaaccent" unicode="&#x145;" horiz-adv-x="750" 
d="M94 0v750h62l407 -555v555h93v-750h-62l-406 555v-555h-94zM291 -195l43 156h86v-48l-70 -108h-59z" />
    <glyph glyph-name="ncommaaccent" unicode="&#x146;" horiz-adv-x="613" 
d="M94 0v547h86v-102l39 39q71 71 156 71q148 0 148 -188v-367h-86v367q0 110 -85 110q-55 0 -141 -86l-31 -32v-359h-86zM223 -195l43 156h86v-48l-71 -108h-58z" />
    <glyph glyph-name="Ncaron" unicode="&#x147;" horiz-adv-x="750" 
d="M94 0v750h62l407 -555v555h93v-750h-62l-406 555v-555h-94zM324 828l-125 143v13h63l109 -113l109 113h63v-15l-125 -141h-94z" />
    <glyph glyph-name="ncaron" unicode="&#x148;" horiz-adv-x="613" 
d="M94 0v547h86v-102l39 39q71 71 156 71q148 0 148 -188v-367h-86v367q0 110 -85 110q-55 0 -141 -86l-31 -32v-359h-86zM260 625l-125 143v13h62l110 -113l109 113h63v-15l-125 -141h-94z" />
    <glyph glyph-name="napostrophe" unicode="&#x149;" horiz-adv-x="613" 
d="M94 0v547h86v-102l39 39q71 71 156 71q148 0 148 -188v-367h-86v367q0 110 -85 110q-55 0 -141 -86l-31 -32v-359h-86zM0 594l43 156h86v-47l-70 -109h-59z" />
    <glyph glyph-name="Eng" unicode="&#x14a;" horiz-adv-x="750" 
d="M344 -219v82h93q59 0 92 36t33 101v43l-374 512v-555h-94v750h62l406 -555v555h94v-750q0 -100 -59.5 -159.5t-159.5 -59.5h-93z" />
    <glyph glyph-name="eng" unicode="&#x14b;" horiz-adv-x="613" 
d="M266 -188v79h39q73 0 102.5 38t29.5 118v320q0 110 -85 110q-55 0 -141 -86l-31 -32v-359h-86v547h86v-102l39 39q71 71 156 71q148 0 148 -188v-304q0 -130 -56 -190.5t-178 -60.5h-23z" />
    <glyph glyph-name="Omacron" unicode="&#x14c;" horiz-adv-x="734" 
d="M367 -8q-152 0 -232 90.5t-80 261.5v62q0 166 80.5 259t231.5 93q152 0 232.5 -91t80.5 -261v-62q0 -166 -81 -259t-232 -93zM367 74q110 0 164.5 65.5t54.5 204.5v62q0 139 -54.5 204.5t-164.5 65.5t-164.5 -65.5t-54.5 -204.5v-62q0 -139 54.5 -204.5t164.5 -65.5z
M242 828v64h250v-64h-250z" />
    <glyph glyph-name="omacron" unicode="&#x14d;" horiz-adv-x="586" 
d="M293 -8q-238 0 -238 289q0 127 60.5 200.5t177.5 73.5q121 0 179.5 -72.5t58.5 -201.5q0 -137 -60 -213t-178 -76zM293 70q152 0 152 211q0 97 -34 146.5t-118 49.5t-118 -49.5t-34 -146.5q0 -211 152 -211zM168 625v63h250v-63h-250z" />
    <glyph glyph-name="Obreve" unicode="&#x14e;" horiz-adv-x="734" 
d="M367 -8q-152 0 -232 90.5t-80 261.5v62q0 166 80.5 259t231.5 93q152 0 232.5 -91t80.5 -261v-62q0 -166 -81 -259t-232 -93zM367 74q110 0 164.5 65.5t54.5 204.5v62q0 139 -54.5 204.5t-164.5 65.5t-164.5 -65.5t-54.5 -204.5v-62q0 -139 54.5 -204.5t164.5 -65.5z
M367 828q-77 0 -116.5 40.5t-39.5 100.5h47q0 -36 32.5 -56.5t76.5 -20.5q45 0 77.5 20.5t32.5 56.5h46q0 -60 -39 -100.5t-117 -40.5z" />
    <glyph glyph-name="obreve" unicode="&#x14f;" horiz-adv-x="586" 
d="M293 -8q-238 0 -238 289q0 127 60.5 200.5t177.5 73.5q121 0 179.5 -72.5t58.5 -201.5q0 -137 -60 -213t-178 -76zM293 70q152 0 152 211q0 97 -34 146.5t-118 49.5t-118 -49.5t-34 -146.5q0 -211 152 -211zM293 625q-77 0 -116.5 40t-39.5 101h47q0 -36 32.5 -57
t76.5 -21t76.5 21t32.5 57h47q0 -61 -39.5 -101t-116.5 -40z" />
    <glyph glyph-name="Ohungarumlaut" unicode="&#x150;" horiz-adv-x="734" 
d="M367 -8q-152 0 -232 90.5t-80 261.5v62q0 166 80.5 259t231.5 93q152 0 232.5 -91t80.5 -261v-62q0 -166 -81 -259t-232 -93zM367 74q110 0 164.5 65.5t54.5 204.5v62q0 139 -54.5 204.5t-164.5 65.5t-164.5 -65.5t-54.5 -204.5v-62q0 -139 54.5 -204.5t164.5 -65.5z
M203 828v16l98 140h97v-15l-140 -141h-55zM371 828v16l98 140h97v-15l-140 -141h-55z" />
    <glyph glyph-name="ohungarumlaut" unicode="&#x151;" horiz-adv-x="586" 
d="M293 -8q-238 0 -238 289q0 127 60.5 200.5t177.5 73.5q121 0 179.5 -72.5t58.5 -201.5q0 -137 -60 -213t-178 -76zM293 70q152 0 152 211q0 97 -34 146.5t-118 49.5t-118 -49.5t-34 -146.5q0 -211 152 -211zM125 625v16l98 140h97v-15l-140 -141h-55zM293 625v16l98 140
h97v-15l-140 -141h-55z" />
    <glyph glyph-name="OE" unicode="&#x152;" horiz-adv-x="984" 
d="M922 0h-555q-152 0 -232 90.5t-80 261.5v46q0 164 78.5 256.5t225.5 94.5v1h563v-82h-328v-230h297v-83h-297v-273h328v-82zM148 352q0 -139 54.5 -204.5t164.5 -65.5h133v586h-133q-110 0 -164.5 -65.5t-54.5 -204.5v-46z" />
    <glyph glyph-name="oe" unicode="&#x153;" horiz-adv-x="918" 
d="M293 -8q-238 0 -238 289q0 127 60.5 200.5t177.5 73.5q134 0 193 -92q67 92 194 92q86 0 136.5 -39t50.5 -118q0 -73 -45 -114.5t-127 -41.5h-164v-31q0 -73 40 -107t109 -34q75 0 148 35h8v-78q-24 -11 -69.5 -23t-86.5 -12q-140 0 -201 87q-61 -87 -186 -87zM293 70
q149 0 152 202v18q-2 92 -36.5 139.5t-115.5 47.5q-84 0 -118 -49.5t-34 -146.5q0 -211 152 -211zM531 320v-7h141q61 0 85 21t24 64q0 79 -101 79q-149 0 -149 -157z" />
    <glyph glyph-name="Racute" unicode="&#x154;" horiz-adv-x="656" 
d="M94 0v750h242q117 0 171.5 -54.5t54.5 -172.5q0 -86 -35 -136t-101 -78q60 -55 113 -148.5t70 -152.5v-8h-97q-13 52 -70 146t-106 135h-149v-281h-93zM187 363h125q157 0 157 160q0 81 -31.5 113t-109.5 32h-141v-305zM207 828v16l98 140h97v-15l-140 -141h-55z" />
    <glyph glyph-name="racute" unicode="&#x155;" horiz-adv-x="398" 
d="M94 0v547h86v-121l8 12q71 109 160 109h35v-94h-39q-61 0 -102 -39l-62 -62v-352h-86zM117 625v16l98 140h97v-15l-140 -141h-55z" />
    <glyph glyph-name="Rcommaaccent" unicode="&#x156;" horiz-adv-x="656" 
d="M94 0v750h242q117 0 171.5 -54.5t54.5 -172.5q0 -86 -35 -136t-101 -78q60 -55 113 -148.5t70 -152.5v-8h-97q-13 52 -70 146t-106 135h-149v-281h-93zM187 363h125q157 0 157 160q0 81 -31.5 113t-109.5 32h-141v-305zM244 -195l43 156h86v-48l-70 -108h-59z" />
    <glyph glyph-name="rcommaaccent" unicode="&#x157;" horiz-adv-x="398" 
d="M94 0v547h86v-121l8 12q71 109 160 109h35v-94h-39q-61 0 -102 -39l-62 -62v-352h-86zM49 -195l43 156h86v-48l-71 -108h-58z" />
    <glyph glyph-name="Rcaron" unicode="&#x158;" horiz-adv-x="656" 
d="M94 0v750h242q117 0 171.5 -54.5t54.5 -172.5q0 -86 -35 -136t-101 -78q60 -55 113 -148.5t70 -152.5v-8h-97q-13 52 -70 146t-106 135h-149v-281h-93zM187 363h125q157 0 157 160q0 81 -31.5 113t-109.5 32h-141v-305zM250 828l-125 143v13h62l110 -113l109 113h63v-15
l-125 -141h-94z" />
    <glyph glyph-name="rcaron" unicode="&#x159;" horiz-adv-x="398" 
d="M94 0v547h86v-121l8 12q71 109 160 109h35v-94h-39q-61 0 -102 -39l-62 -62v-352h-86zM184 625l-125 143v13h62l109 -113l110 113h62v-15l-125 -141h-93z" />
    <glyph glyph-name="Sacute" unicode="&#x15a;" horiz-adv-x="586" 
d="M250 -8q-43 0 -105.5 11t-89.5 20v82h8q107 -31 187 -31h31q157 0 157 129q0 57 -26.5 83.5t-83.5 41.5l-101 27q-164 46 -164 200q0 91 65.5 147t176.5 56h23q41 0 94.5 -10t77.5 -21v-79h-8q-84 28 -164 28h-23q-149 0 -149 -121q0 -53 27.5 -77t82.5 -40l97 -28
q35 -10 60 -22t52 -34.5t41.5 -60.5t14.5 -90q0 -97 -66.5 -154t-183.5 -57h-31zM234 828v16l98 140h98v-15l-141 -141h-55z" />
    <glyph glyph-name="sacute" unicode="&#x15b;" horiz-adv-x="516" 
d="M234 -8q-95 0 -160 20v78h8q78 -20 152 -20q133 0 133 86q0 59 -86 78l-82 20q-129 30 -129 144q0 73 57 115t154 42q67 0 145 -16v-78h-8q-82 16 -137 16q-125 0 -125 -79q0 -17 4.5 -28t16.5 -18t21 -10t29 -8l74 -18q73 -17 112.5 -52t39.5 -108q0 -85 -62 -124.5
t-157 -39.5zM203 625v16l98 140h97v-15l-140 -141h-55z" />
    <glyph glyph-name="Scircumflex" unicode="&#x15c;" horiz-adv-x="586" 
d="M250 -8q-43 0 -105.5 11t-89.5 20v82h8q107 -31 187 -31h31q157 0 157 129q0 57 -26.5 83.5t-83.5 41.5l-101 27q-164 46 -164 200q0 91 65.5 147t176.5 56h23q41 0 94.5 -10t77.5 -21v-79h-8q-84 28 -164 28h-23q-149 0 -149 -121q0 -53 27.5 -77t82.5 -40l97 -28
q35 -10 60 -22t52 -34.5t41.5 -60.5t14.5 -90q0 -97 -66.5 -154t-183.5 -57h-31zM133 828v16l125 140h94l125 -142v-14h-63l-109 113l-110 -113h-62z" />
    <glyph glyph-name="scircumflex" unicode="&#x15d;" horiz-adv-x="516" 
d="M234 -8q-95 0 -160 20v78h8q78 -20 152 -20q133 0 133 86q0 59 -86 78l-82 20q-129 30 -129 144q0 73 57 115t154 42q67 0 145 -16v-78h-8q-82 16 -137 16q-125 0 -125 -79q0 -17 4.5 -28t16.5 -18t21 -10t29 -8l74 -18q73 -17 112.5 -52t39.5 -108q0 -85 -62 -124.5
t-157 -39.5zM94 625v16l125 140h93l125 -142v-14h-62l-109 113l-110 -113h-62z" />
    <glyph glyph-name="Scedilla" unicode="&#x15e;" horiz-adv-x="586" 
d="M250 -8q-43 0 -105.5 11t-89.5 20v82h8q107 -31 187 -31h31q157 0 157 129q0 57 -26.5 83.5t-83.5 41.5l-101 27q-164 46 -164 200q0 91 65.5 147t176.5 56h23q41 0 94.5 -10t77.5 -21v-79h-8q-84 28 -164 28h-23q-149 0 -149 -121q0 -53 27.5 -77t82.5 -40l97 -28
q35 -10 60 -22t52 -34.5t41.5 -60.5t14.5 -90q0 -97 -66.5 -154t-183.5 -57h-31zM139 -188v55h93q55 0 55 35q0 17 -15.5 35t-35.5 28v12h55q27 -12 45 -35.5t18 -46.5q0 -42 -31 -62.5t-79 -20.5h-105z" />
    <glyph glyph-name="scedilla" unicode="&#x15f;" horiz-adv-x="516" 
d="M234 -8q-95 0 -160 20v78h8q78 -20 152 -20q133 0 133 86q0 59 -86 78l-82 20q-129 30 -129 144q0 73 57 115t154 42q67 0 145 -16v-78h-8q-82 16 -137 16q-125 0 -125 -79q0 -17 4.5 -28t16.5 -18t21 -10t29 -8l74 -18q73 -17 112.5 -52t39.5 -108q0 -85 -62 -124.5
t-157 -39.5zM107 -188v55h94q55 0 55 35q0 17 -15.5 35t-35.5 28v12h55q26 -12 44 -35.5t18 -46.5q0 -42 -31 -62.5t-78 -20.5h-106z" />
    <glyph glyph-name="Scaron" unicode="&#x160;" horiz-adv-x="586" 
d="M250 -8q-43 0 -105.5 11t-89.5 20v82h8q107 -31 187 -31h31q157 0 157 129q0 57 -26.5 83.5t-83.5 41.5l-101 27q-164 46 -164 200q0 91 65.5 147t176.5 56h23q41 0 94.5 -10t77.5 -21v-79h-8q-84 28 -164 28h-23q-149 0 -149 -121q0 -53 27.5 -77t82.5 -40l97 -28
q35 -10 60 -22t52 -34.5t41.5 -60.5t14.5 -90q0 -97 -66.5 -154t-183.5 -57h-31zM254 828l-125 143v13h62l110 -113l109 113h63v-15l-125 -141h-94z" />
    <glyph glyph-name="scaron" unicode="&#x161;" horiz-adv-x="516" 
d="M234 -8q-95 0 -160 20v78h8q78 -20 152 -20q133 0 133 86q0 59 -86 78l-82 20q-129 30 -129 144q0 73 57 115t154 42q67 0 145 -16v-78h-8q-82 16 -137 16q-125 0 -125 -79q0 -17 4.5 -28t16.5 -18t21 -10t29 -8l74 -18q73 -17 112.5 -52t39.5 -108q0 -85 -62 -124.5
t-157 -39.5zM223 625l-125 143v13h62l110 -113l109 113h62v-15l-125 -141h-93z" />
    <glyph glyph-name="Tcommaaccent" unicode="&#x162;" horiz-adv-x="594" 
d="M250 0v668h-234v82h562v-82h-234v-668h-94zM166 -188v55h94q54 0 54 35q0 17 -15.5 35t-34.5 28v12h54q27 -12 45 -35.5t18 -46.5q0 -42 -31 -62.5t-79 -20.5h-105z" />
    <glyph glyph-name="tcommaaccent" unicode="&#x163;" horiz-adv-x="406" 
d="M375 0h-70q-188 0 -188 188v281h-86v78h86v125h86v-125h156v-78h-156v-266q0 -74 25.5 -99.5t91.5 -25.5h55v-78zM170 -188v55h94q54 0 54 35q0 17 -15.5 35t-34.5 28v12h54q27 -12 45 -35.5t18 -46.5q0 -42 -31 -62.5t-79 -20.5h-105z" />
    <glyph glyph-name="Tcaron" unicode="&#x164;" horiz-adv-x="594" 
d="M250 0v668h-234v82h562v-82h-234v-668h-94zM250 828l-125 143v13h62l110 -113l109 113h63v-15l-125 -141h-94z" />
    <glyph glyph-name="tcaron" unicode="&#x165;" horiz-adv-x="406" 
d="M305 0q-188 0 -188 188v281h-86v78h86v125h86v-125h156v-78h-156v-266q0 -74 25.5 -99.5t91.5 -25.5h55v-78h-70zM262 594l43 156h86v-47l-71 -109h-58z" />
    <glyph glyph-name="Tbar" unicode="&#x166;" horiz-adv-x="594" 
d="M531 371h-187v-371h-94v371h-188v82h188v215h-234v82h562v-82h-234v-215h187v-82z" />
    <glyph glyph-name="tbar" unicode="&#x167;" horiz-adv-x="406" 
d="M359 258h-156v-55q0 -74 25.5 -99.5t91.5 -25.5h55v-78h-70q-188 0 -188 188v70h-86v78h86v133h-86v78h86v125h86v-125h156v-78h-156v-133h156v-78z" />
    <glyph glyph-name="Utilde" unicode="&#x168;" horiz-adv-x="719" 
d="M359 -8q-129 0 -201 69.5t-72 196.5v492h94v-492q0 -95 49 -139.5t130 -44.5q82 0 131 44.5t49 139.5v492h94v-492q0 -127 -74.5 -196.5t-199.5 -69.5zM187 828v64q47 77 98 77q30 0 81.5 -38.5t67.5 -38.5q14 0 26.5 6t24.5 20t19 23t19 28h8v-63q-43 -78 -97 -78
q-28 0 -81 39t-68 39q-17 0 -34 -12.5t-27 -25t-25 -34.5q-3 -4 -4 -6h-8z" />
    <glyph glyph-name="utilde" unicode="&#x169;" horiz-adv-x="613" 
d="M238 -8q-148 0 -148 188v367h86v-367q0 -110 86 -110q54 0 140 86l32 32v359h86v-547h-86v102l-39 -39q-71 -71 -157 -71zM135 625v63q43 78 97 78q30 0 82 -39t67 -39q18 0 36.5 14t27.5 26t26 38h8v-63q-46 -78 -98 -78q-27 0 -80 39t-69 39q-18 0 -36.5 -14t-27 -26
t-25.5 -38h-8z" />
    <glyph glyph-name="Umacron" unicode="&#x16a;" horiz-adv-x="719" 
d="M359 -8q-129 0 -201 69.5t-72 196.5v492h94v-492q0 -95 49 -139.5t130 -44.5q82 0 131 44.5t49 139.5v492h94v-492q0 -127 -74.5 -196.5t-199.5 -69.5zM234 828v64h250v-64h-250z" />
    <glyph glyph-name="umacron" unicode="&#x16b;" horiz-adv-x="613" 
d="M238 -8q-148 0 -148 188v367h86v-367q0 -110 86 -110q54 0 140 86l32 32v359h86v-547h-86v102l-39 -39q-71 -71 -157 -71zM182 625v63h250v-63h-250z" />
    <glyph glyph-name="Ubreve" unicode="&#x16c;" horiz-adv-x="719" 
d="M359 -8q-129 0 -201 69.5t-72 196.5v492h94v-492q0 -95 49 -139.5t130 -44.5q82 0 131 44.5t49 139.5v492h94v-492q0 -127 -74.5 -196.5t-199.5 -69.5zM359 828q-77 0 -116.5 40.5t-39.5 100.5h47q0 -36 32.5 -56.5t76.5 -20.5q45 0 77.5 20.5t32.5 56.5h47
q0 -60 -39.5 -100.5t-117.5 -40.5z" />
    <glyph glyph-name="ubreve" unicode="&#x16d;" horiz-adv-x="613" 
d="M238 -8q-148 0 -148 188v367h86v-367q0 -110 86 -110q54 0 140 86l32 32v359h86v-547h-86v102l-39 -39q-71 -71 -157 -71zM307 625q-78 0 -117.5 40t-39.5 101h47q0 -36 33 -57t77 -21t76.5 21t32.5 57h47q0 -61 -39.5 -101t-116.5 -40z" />
    <glyph glyph-name="Uring" unicode="&#x16e;" horiz-adv-x="719" 
d="M359 -8q-129 0 -201 69.5t-72 196.5v492h94v-492q0 -95 49 -139.5t130 -44.5q82 0 131 44.5t49 139.5v492h94v-492q0 -127 -74.5 -196.5t-199.5 -69.5zM359 828q-56 0 -84.5 29t-28.5 73t29 72.5t84 28.5q56 0 85 -29t29 -72q0 -44 -29 -73t-85 -29zM359 867
q33 0 50 18.5t17 44.5t-17 44t-50 18t-49.5 -18t-16.5 -44t16.5 -44.5t49.5 -18.5z" />
    <glyph glyph-name="uring" unicode="&#x16f;" horiz-adv-x="613" 
d="M238 -8q-148 0 -148 188v367h86v-367q0 -110 86 -110q54 0 140 86l32 32v359h86v-547h-86v102l-39 -39q-71 -71 -157 -71zM307 625q-56 0 -85 29t-29 73q0 43 29 72t85 29q55 0 84 -29t29 -72q0 -44 -28.5 -73t-84.5 -29zM307 664q33 0 49.5 18.5t16.5 44.5t-16.5 44
t-49.5 18t-50 -18t-17 -44t17 -44.5t50 -18.5z" />
    <glyph glyph-name="Uhungarumlaut" unicode="&#x170;" horiz-adv-x="719" 
d="M359 -8q-129 0 -201 69.5t-72 196.5v492h94v-492q0 -95 49 -139.5t130 -44.5q82 0 131 44.5t49 139.5v492h94v-492q0 -127 -74.5 -196.5t-199.5 -69.5zM193 828v16l98 140h98v-15l-141 -141h-55zM361 828v16l98 140h98v-15l-141 -141h-55z" />
    <glyph glyph-name="uhungarumlaut" unicode="&#x171;" horiz-adv-x="613" 
d="M238 -8q-148 0 -148 188v367h86v-367q0 -110 86 -110q54 0 140 86l32 32v359h86v-547h-86v102l-39 -39q-71 -71 -157 -71zM156 625v16l98 140h98v-15l-141 -141h-55zM324 625v16l98 140h98v-15l-141 -141h-55z" />
    <glyph glyph-name="Uogonek" unicode="&#x172;" horiz-adv-x="719" 
d="M359 -8q-129 0 -201 69.5t-72 196.5v492h94v-492q0 -95 49 -139.5t130 -44.5q82 0 131 44.5t49 139.5v492h94v-492q0 -127 -74.5 -196.5t-199.5 -69.5zM379 -188q-48 0 -78.5 20.5t-30.5 62.5q0 23 18 46.5t44 35.5h55v-12q-20 -10 -35.5 -28t-15.5 -35q0 -35 55 -35h93
v-55h-105z" />
    <glyph glyph-name="uogonek" unicode="&#x173;" horiz-adv-x="613" 
d="M238 -8q-148 0 -148 188v367h86v-367q0 -110 86 -110q54 0 140 86l32 32v359h86v-547h-86v102l-39 -39q-71 -71 -157 -71zM496 -188q-48 0 -78.5 20.5t-30.5 62.5q0 23 18 46.5t44 35.5h55v-12q-20 -10 -35.5 -28t-15.5 -35q0 -35 55 -35h94v-55h-106z" />
    <glyph glyph-name="Wcircumflex" unicode="&#x174;" horiz-adv-x="992" 
d="M223 0q-48 95 -108 304.5t-92 437.5v8h94q60 -413 172 -672q109 236 172 672h78q60 -415 172 -672q108 230 172 672h86v-8q-32 -228 -91.5 -437t-107.5 -305h-114q-32 64 -75 199t-81 297q-83 -351 -156 -496h-121zM328 828v16l125 140h94l125 -142v-14h-63l-109 113
l-109 -113h-63z" />
    <glyph glyph-name="wcircumflex" unicode="&#x175;" horiz-adv-x="758" 
d="M188 0q-48 48 -90.5 162.5t-42.5 243.5v141h86v-141q0 -109 29 -202t68 -141q39 49 68.5 141.5t29.5 201.5v141h86v-141q0 -109 29.5 -201.5t68.5 -141.5q39 49 68 141.5t29 201.5v141h86v-141q0 -129 -42.5 -243.5t-90.5 -162.5h-93q-24 26 -57 86.5t-41 101.5
q-8 -41 -41 -101.5t-57 -86.5h-93zM211 625v16l125 140h94l125 -142v-14h-63l-109 113l-110 -113h-62z" />
    <glyph glyph-name="Ycircumflex" unicode="&#x176;" horiz-adv-x="602" 
d="M258 0v301l-238 441v8h97l192 -359l191 359h90v-8l-238 -433v-309h-94zM137 828v16l125 140h93l125 -142v-14h-62l-109 113l-110 -113h-62z" />
    <glyph glyph-name="ycircumflex" unicode="&#x177;" horiz-adv-x="613" 
d="M129 -188v79h94q110 0 160.5 46t50.5 141v31l-8 -4q-87 -42 -172 -42q-71 0 -117.5 48t-46.5 147v289h86v-289q0 -117 101 -117q79 0 157 39v367h86v-461q0 -138 -77 -206t-220 -68h-94zM133 625v16l125 140h94l125 -142v-14h-63l-109 113l-110 -113h-62z" />
    <glyph glyph-name="Ydieresis" unicode="&#x178;" horiz-adv-x="602" 
d="M258 0v301l-238 441v8h97l192 -359l191 359h90v-8l-238 -433v-309h-94zM387 828v94h86v-94h-86zM145 828v94h85v-94h-85z" />
    <glyph glyph-name="Zacute" unicode="&#x179;" horiz-adv-x="609" 
d="M47 0v43q99 128 220 318t167 307h-372v82h493v-31q-47 -119 -166.5 -318t-208.5 -319h382v-82h-515zM223 828v16l97 140h98v-15l-141 -141h-54z" />
    <glyph glyph-name="zacute" unicode="&#x17a;" horiz-adv-x="523" 
d="M55 0v70q75 76 166.5 193t141.5 206h-293v78h391v-70q-27 -72 -130 -207t-167 -192h305v-78h-414zM180 625v16l97 140h98v-15l-141 -141h-54z" />
    <glyph glyph-name="Zdotaccent" unicode="&#x17b;" horiz-adv-x="609" 
d="M47 0v43q99 128 220 318t167 307h-372v82h493v-31q-47 -119 -166.5 -318t-208.5 -319h382v-82h-515zM262 828v94h86v-94h-86z" />
    <glyph glyph-name="zdotaccent" unicode="&#x17c;" horiz-adv-x="523" 
d="M55 0v70q75 76 166.5 193t141.5 206h-293v78h391v-70q-27 -72 -130 -207t-167 -192h305v-78h-414zM219 625v94h86v-94h-86z" />
    <glyph glyph-name="Zcaron" unicode="&#x17d;" horiz-adv-x="609" 
d="M47 0v43q99 128 220 318t167 307h-372v82h493v-31q-47 -119 -166.5 -318t-208.5 -319h382v-82h-515zM258 828l-125 143v13h62l110 -113l109 113h63v-15l-125 -141h-94z" />
    <glyph glyph-name="zcaron" unicode="&#x17e;" horiz-adv-x="523" 
d="M55 0v70q75 76 166.5 193t141.5 206h-293v78h391v-70q-27 -72 -130 -207t-167 -192h305v-78h-414zM215 625l-125 143v13h62l110 -113l109 113h63v-15l-125 -141h-94z" />
    <glyph glyph-name="longs" unicode="&#x17f;" horiz-adv-x="336" 
d="M117 0v469h-86v78h86v23q0 87 48.5 133.5t131.5 46.5h62v-78h-62q-52 0 -73 -24t-21 -78v-570h-86z" />
    <glyph glyph-name="florin" unicode="&#x192;" 
d="M31 -188v83h94q69 0 97 32t28 104v324h-125v82h125v94q0 105 54.5 162t164.5 57h93v-82h-93q-73 0 -99 -31.5t-26 -105.5v-94h187v-82h-187v-324q0 -105 -56.5 -162t-162.5 -57h-94z" />
    <glyph glyph-name="Scommaaccent" unicode="&#x218;" horiz-adv-x="586" 
d="M250 -8q-43 0 -105.5 11t-89.5 20v82h8q107 -31 187 -31h31q157 0 157 129q0 57 -26.5 83.5t-83.5 41.5l-101 27q-164 46 -164 200q0 91 65.5 147t176.5 56h23q41 0 94.5 -10t77.5 -21v-79h-8q-84 28 -164 28h-23q-149 0 -149 -121q0 -53 27.5 -77t82.5 -40l97 -28
q35 -10 60 -22t52 -34.5t41.5 -60.5t14.5 -90q0 -97 -66.5 -154t-183.5 -57h-31zM182 -195l43 156h86v-48l-71 -108h-58z" />
    <glyph glyph-name="scommaaccent" unicode="&#x219;" horiz-adv-x="516" 
d="M234 -8q-95 0 -160 20v78h8q78 -20 152 -20q133 0 133 86q0 59 -86 78l-82 20q-129 30 -129 144q0 73 57 115t154 42q67 0 145 -16v-78h-8q-82 16 -137 16q-125 0 -125 -79q0 -17 4.5 -28t16.5 -18t21 -10t29 -8l74 -18q73 -17 112.5 -52t39.5 -108q0 -85 -62 -124.5
t-157 -39.5zM146 -195l43 156h86v-48l-70 -108h-59z" />
    <glyph glyph-name="uni021A" unicode="&#x21a;" horiz-adv-x="594" 
d="M250 0v668h-234v82h562v-82h-234v-668h-94zM209 -195l43 156h86v-48l-70 -108h-59z" />
    <glyph glyph-name="uni021B" unicode="&#x21b;" horiz-adv-x="406" 
d="M375 0h-70q-188 0 -188 188v281h-86v78h86v125h86v-125h156v-78h-156v-266q0 -74 25.5 -99.5t91.5 -25.5h55v-78zM162 -195l43 156h86v-48l-70 -108h-59z" />
    <glyph glyph-name="circumflex" unicode="&#x2c6;" horiz-adv-x="344" 
d="M0 625v16l125 140h94l125 -142v-14h-63l-109 113l-110 -113h-62z" />
    <glyph glyph-name="caron" unicode="&#x2c7;" horiz-adv-x="344" 
d="M125 625l-125 143v13h62l110 -113l109 113h63v-15l-125 -141h-94z" />
    <glyph glyph-name="breve" unicode="&#x2d8;" horiz-adv-x="312" 
d="M156 625q-77 0 -116.5 40t-39.5 101h47q0 -36 32.5 -57t76.5 -21t77 21t33 57h46q0 -61 -39 -101t-117 -40z" />
    <glyph glyph-name="dotaccent" unicode="&#x2d9;" horiz-adv-x="86" 
d="M0 625v94h86v-94h-86z" />
    <glyph glyph-name="ring" unicode="&#x2da;" horiz-adv-x="227" 
d="M113 625q-56 0 -84.5 29t-28.5 73q0 43 29 72t84 29q56 0 85 -29t29 -72q0 -44 -29 -73t-85 -29zM113 664q33 0 50 18.5t17 44.5t-17 44t-50 18t-49.5 -18t-16.5 -44t16.5 -44.5t49.5 -18.5z" />
    <glyph glyph-name="ogonek" unicode="&#x2db;" horiz-adv-x="215" 
d="M109 -188q-47 0 -78 20.5t-31 62.5q0 23 18 46.5t44 35.5h55v-12q-19 -10 -35 -28t-16 -35q0 -35 55 -35h94v-55h-106z" />
    <glyph glyph-name="tilde" unicode="&#x2dc;" horiz-adv-x="344" 
d="M0 625v63q46 78 98 78q29 0 81 -39t67 -39q18 0 36.5 14t27.5 26t26 38h8v-63q-46 -78 -98 -78q-28 0 -80 39t-68 39q-18 0 -36.5 -14t-28 -27t-25.5 -37h-8z" />
    <glyph glyph-name="hungarumlaut" unicode="&#x2dd;" horiz-adv-x="363" 
d="M0 625v16l98 140h97v-15l-140 -141h-55zM168 625v16l98 140h97v-15l-140 -141h-55z" />
    <glyph glyph-name="Delta" unicode="&#x394;" horiz-adv-x="680" 
d="M16 0v23l273 727h102l273 -727v-23h-648zM137 78h406l-203 578z" />
    <glyph glyph-name="Delta" unicode="&#x2206;" horiz-adv-x="680" 
d="M16 0v23l273 727h102l273 -727v-23h-648zM137 78h406l-203 578z" />
    <glyph glyph-name="Omega" unicode="&#x3a9;" horiz-adv-x="734" 
d="M55 0v82h117q-117 117 -117 301q0 182 80 278.5t232 96.5t232.5 -96.5t80.5 -278.5q0 -184 -117 -301h117v-82h-242v66q72 50 110 133t38 184q0 293 -219 293t-219 -293q0 -101 38.5 -184t110.5 -133v-66h-242z" />
    <glyph glyph-name="Omega" unicode="&#x2126;" horiz-adv-x="734" 
d="M55 0v82h117q-117 117 -117 301q0 182 80 278.5t232 96.5t232.5 -96.5t80.5 -278.5q0 -184 -117 -301h117v-82h-242v66q72 50 110 133t38 184q0 293 -219 293t-219 -293q0 -101 38.5 -184t110.5 -133v-66h-242z" />
    <glyph glyph-name="pi" unicode="&#x3c0;" horiz-adv-x="613" 
d="M94 0v547h429v-547h-85v469h-258v-469h-86z" />
    <glyph glyph-name="endash" unicode="&#x2013;" horiz-adv-x="500" 
d="M31 328v78h438v-78h-438z" />
    <glyph glyph-name="emdash" unicode="&#x2014;" horiz-adv-x="1000" 
d="M31 328v78h938v-78h-938z" />
    <glyph glyph-name="quoteleft" unicode="&#x2018;" horiz-adv-x="273" 
d="M90 531v47l94 172h58l-58 -219h-94z" />
    <glyph glyph-name="quoteright" unicode="&#x2019;" horiz-adv-x="273" 
d="M31 531l59 219h94v-47l-94 -172h-59z" />
    <glyph glyph-name="quotesinglbase" unicode="&#x201a;" horiz-adv-x="273" 
d="M31 -125l59 219h94v-47l-94 -172h-59z" />
    <glyph glyph-name="quotedblleft" unicode="&#x201c;" horiz-adv-x="461" 
d="M277 531v47l94 172h59l-59 -219h-94zM90 531v47l94 172h58l-58 -219h-94z" />
    <glyph glyph-name="quotedblright" unicode="&#x201d;" horiz-adv-x="461" 
d="M219 531l58 219h94v-47l-94 -172h-58zM31 531l59 219h94v-47l-94 -172h-59z" />
    <glyph glyph-name="quotedblbase" unicode="&#x201e;" horiz-adv-x="461" 
d="M219 -125l58 219h94v-47l-94 -172h-58zM31 -125l59 219h94v-47l-94 -172h-59z" />
    <glyph glyph-name="dagger" unicode="&#x2020;" horiz-adv-x="516" 
d="M215 -125v594h-153v78h153v203h86v-203h152v-78h-152v-594h-86z" />
    <glyph glyph-name="daggerdbl" unicode="&#x2021;" horiz-adv-x="516" 
d="M62 78v78h153v313h-153v78h153v203h86v-203h152v-78h-152v-313h152v-78h-152v-203h-86v203h-153z" />
    <glyph glyph-name="bullet" unicode="&#x2022;" horiz-adv-x="500" 
d="M249 125q-76 0 -131.5 49.5t-55.5 138.5t55.5 138t131.5 49t132 -49t56 -138t-56 -138.5t-132 -49.5z" />
    <glyph glyph-name="ellipsis" unicode="&#x2026;" horiz-adv-x="832" 
d="M648 0v94h94v-94h-94zM367 0v94h94v-94h-94zM90 0v94h94v-94h-94z" />
    <glyph glyph-name="perthousand" unicode="&#x2030;" horiz-adv-x="1320" 
d="M254 0v12l375 738h55v-12l-375 -738h-55zM234 320q-87 0 -127.5 52.5t-40.5 162.5q0 111 40.5 165t127.5 54q86 0 127 -54t41 -165q0 -110 -41 -162.5t-127 -52.5zM234 379q52 0 73 35.5t21 120.5q0 86 -21.5 123t-72.5 37q-52 0 -72.5 -36.5t-20.5 -123.5
q0 -83 20.5 -119.5t72.5 -36.5zM699 -4q-87 0 -127.5 52t-40.5 163t40.5 165t127.5 54q168 0 168 -219q0 -110 -41 -162.5t-127 -52.5zM699 55q52 0 73 35.5t21 120.5q0 86 -21.5 123t-72.5 37q-52 0 -73 -36.5t-21 -123.5q0 -83 21 -119.5t73 -36.5zM1113 -4
q-87 0 -127.5 52t-40.5 163t40.5 165t127.5 54q168 0 168 -219q0 -110 -41 -162.5t-127 -52.5zM1113 55q52 0 73 35.5t21 120.5q0 86 -21.5 123t-72.5 37q-52 0 -72.5 -36.5t-20.5 -123.5q0 -83 20.5 -119.5t72.5 -36.5z" />
    <glyph glyph-name="guilsinglleft" unicode="&#x2039;" horiz-adv-x="336" 
d="M273 125l-211 180v62l211 180h8v-94l-140 -117l140 -117v-94h-8z" />
    <glyph glyph-name="guilsinglright" unicode="&#x203a;" horiz-adv-x="336" 
d="M55 125v94l140 117l-140 117v94h7l211 -180v-62l-211 -180h-7z" />
    <glyph glyph-name="fraction" unicode="&#x2044;" horiz-adv-x="8" 
d="M-211 0v12l375 738h55v-12l-375 -738h-55z" />
    <glyph glyph-name="fraction" unicode="&#x2215;" horiz-adv-x="8" 
d="M-211 0v12l375 738h55v-12l-375 -738h-55z" />
    <glyph glyph-name="uni2070" unicode="&#x2070;" horiz-adv-x="412" 
d="M207 320q-87 0 -128 53.5t-41 163.5q0 111 41 164.5t128 53.5q169 0 169 -218q0 -217 -169 -217zM207 381q51 0 72 35.5t21 120.5q0 86 -21 122t-72 36q-52 0 -73 -36t-21 -122q0 -83 21 -119.5t73 -36.5z" />
    <glyph glyph-name="uni2074" unicode="&#x2074;" horiz-adv-x="412" 
d="M249 324v95h-222v45q93 131 121 286h79q-31 -144 -115 -273h137v120h75v-120h62v-58h-62v-95h-75z" />
    <glyph glyph-name="uni2075" unicode="&#x2075;" horiz-adv-x="412" 
d="M57 324v61h139q88 0 88 82q0 39 -20.5 54t-67.5 15h-129v214h273v-60h-201v-93h57q164 0 164 -130q0 -63 -40.5 -103t-123.5 -40h-139z" />
    <glyph glyph-name="uni2076" unicode="&#x2076;" horiz-adv-x="412" 
d="M207 320q-159 0 -159 140v129q0 71 50.5 116t147.5 45h78v-60h-78q-123 0 -123 -101v-14q55 22 94 22q77 0 112.5 -34t35.5 -103q0 -64 -38 -102t-120 -38zM207 381q40 0 61 18t21 61q0 42 -17 59t-55 17q-49 0 -94 -17v-59q0 -79 84 -79z" />
    <glyph glyph-name="uni2077" unicode="&#x2077;" horiz-adv-x="412" 
d="M139 324v60q0 164 144 308h-245v58h338v-45q-77 -76 -119 -149t-42 -164v-68h-76z" />
    <glyph glyph-name="uni2078" unicode="&#x2078;" horiz-adv-x="412" 
d="M196 320q-153 0 -153 122q0 36 15.5 57t47.5 41l11 7q-64 32 -64 96q0 59 40.5 85.5t102.5 26.5h21q142 0 142 -112q0 -30 -14 -49.5t-43 -42.5l-5 -4q37 -17 55 -40.5t18 -64.5q0 -58 -43.5 -90t-109.5 -32h-21zM201 383h10q84 0 84 59q0 41 -51 60l-60 20l-23 -13
q-43 -27 -43 -67q0 -35 21.5 -47t61.5 -12zM231 569l10 8q23 17 33 30.5t10 35.5q0 30 -17 41.5t-50 11.5h-21q-34 0 -51 -11.5t-17 -41.5q0 -38 45 -53z" />
    <glyph glyph-name="uni2079" unicode="&#x2079;" horiz-adv-x="412" 
d="M88 324v61h78q123 0 123 100v13q-48 -20 -93 -20q-148 0 -148 136q0 63 39.5 102t119.5 39q78 0 118 -36.5t40 -104.5v-129q0 -71 -50.5 -116t-148.5 -45h-78zM196 538q44 0 93 19v57q0 81 -82 81q-84 0 -84 -81q0 -41 17.5 -58.5t55.5 -17.5z" />
    <glyph glyph-name="uni2080" unicode="&#x2080;" horiz-adv-x="412" 
d="M207 -4q-87 0 -128 53t-41 164q0 110 41 164t128 54q169 0 169 -218q0 -217 -169 -217zM207 57q51 0 72 35.5t21 120.5q0 86 -21 122t-72 36q-52 0 -73 -36t-21 -122q0 -83 21 -119.5t73 -36.5z" />
    <glyph glyph-name="uni2081" unicode="&#x2081;" horiz-adv-x="412" 
d="M198 0v353l-126 -44h-16v60l167 57h51v-426h-76z" />
    <glyph glyph-name="uni2082" unicode="&#x2082;" horiz-adv-x="412" 
d="M53 0v62q0 92 99 138l56 27q39 18 55 33.5t16 44.5q0 35 -20.5 48t-62.5 13h-134v60h134q159 0 159 -121q0 -43 -28.5 -73.5t-82.5 -54.5l-56 -26q-36 -16 -48 -37.5t-12 -52.5h231v-61h-306z" />
    <glyph glyph-name="uni2083" unicode="&#x2083;" horiz-adv-x="412" 
d="M58 0v61h132q99 0 99 71q0 35 -23 49t-70 14h-89v60h120q52 26 52 61q0 28 -21 38t-68 10h-132v62h138q159 0 159 -99q0 -32 -10.5 -52t-42.5 -40q63 -30 63 -103q0 -63 -48 -97.5t-127 -34.5h-132z" />
    <glyph glyph-name="uni2084" unicode="&#x2084;" horiz-adv-x="412" 
d="M249 0v95h-222v45q93 131 121 286h79q-31 -145 -115 -274h137v120h75v-120h62v-57h-62v-95h-75z" />
    <glyph glyph-name="uni2085" unicode="&#x2085;" horiz-adv-x="412" 
d="M57 0v61h139q88 0 88 82q0 38 -20.5 53.5t-67.5 15.5h-129v214h273v-60h-201v-94h57q164 0 164 -129q0 -63 -40.5 -103t-123.5 -40h-139z" />
    <glyph glyph-name="uni2086" unicode="&#x2086;" horiz-adv-x="412" 
d="M207 -4q-159 0 -159 140v129q0 71 50.5 116t147.5 45h78v-60h-78q-123 0 -123 -101v-14q52 21 94 21q78 0 113 -33.5t35 -102.5q0 -64 -38 -102t-120 -38zM207 57q40 0 61 18t21 61q0 41 -17 58.5t-55 17.5q-51 0 -94 -18v-58q0 -79 84 -79z" />
    <glyph glyph-name="uni2087" unicode="&#x2087;" horiz-adv-x="412" 
d="M139 0v60q0 164 144 308h-245v58h338v-45q-77 -76 -119 -149t-42 -165v-67h-76z" />
    <glyph glyph-name="uni2088" unicode="&#x2088;" horiz-adv-x="412" 
d="M196 -4q-153 0 -153 122q0 36 15 56.5t48 41.5l11 7q-64 32 -64 95q0 59 40.5 86t102.5 27h21q142 0 142 -113q0 -30 -14 -49t-43 -42l-5 -4q37 -17 55 -40.5t18 -64.5q0 -58 -43.5 -90t-109.5 -32h-21zM201 59h10q40 0 62 12.5t22 46.5q0 41 -51 60l-60 20l-23 -13
q-43 -27 -43 -67q0 -35 21 -47t62 -12zM231 245l10 8q23 17 33 30.5t10 34.5q0 30 -17 42t-50 12h-21q-33 0 -50.5 -12t-17.5 -42q0 -38 45 -52z" />
    <glyph glyph-name="uni2089" unicode="&#x2089;" horiz-adv-x="412" 
d="M88 0v61h78q123 0 123 100v13q-50 -21 -93 -21q-148 0 -148 137q0 63 39.5 102t119.5 39q78 0 118 -36.5t40 -104.5v-129q0 -71 -50.5 -116t-148.5 -45h-78zM196 214q41 0 93 18v58q0 81 -82 81q-84 0 -84 -81q0 -41 17.5 -58.5t55.5 -17.5z" />
    <glyph glyph-name="Euro" unicode="&#x20ac;" 
d="M219 414v-78h293v-82h-293v-4q0 -83 51 -129.5t121 -46.5h31q63 0 133 31h7v-78q-76 -35 -140 -35h-31q-114 0 -190 65t-76 193v4h-94v82h94v78h-94v82h94v4q0 116 78 187t188 71h23q39 0 82.5 -9.5t65.5 -21.5v-79h-7q-61 28 -141 28h-23q-72 0 -122 -44t-50 -132v-4
h293v-82h-293z" />
    <glyph glyph-name="trademark" unicode="&#x2122;" horiz-adv-x="758" 
d="M336 352v398h55l122 -176l112 176h55v-398h-71v250l-86 -125h-31l-86 117v-242h-70zM121 352v339h-98v59h266v-59h-98v-339h-70z" />
    <glyph glyph-name="partialdiff" unicode="&#x2202;" 
d="M313 -8q-122 0 -178.5 66t-56.5 176q0 120 52 177.5t167 57.5q63 0 156 -43v43q0 199 -203 199h-109v82h109q146 0 221.5 -78.5t75.5 -202.5v-235q0 -118 -59 -180t-175 -62zM313 74q140 0 140 160v114q-72 39 -156 39q-66 0 -95.5 -34.5t-29.5 -118.5q0 -87 36 -123.5
t105 -36.5z" />
    <glyph glyph-name="product" unicode="&#x220f;" horiz-adv-x="742" 
d="M94 0v750h554v-750h-93v668h-367v-668h-94z" />
    <glyph glyph-name="summation" unicode="&#x2211;" horiz-adv-x="609" 
d="M94 0v82l219 293l-219 293v82h453v-82h-348l207 -277v-32l-207 -277h348v-82h-453z" />
    <glyph glyph-name="minus" unicode="&#x2212;" 
d="M94 328v78h437v-78h-437z" />
    <glyph glyph-name="radical" unicode="&#x221a;" 
d="M203 0l-183 539v8h78l144 -430l227 602h156v-78h-113l-239 -641h-70z" />
    <glyph glyph-name="infinity" unicode="&#x221e;" horiz-adv-x="602" 
d="M137 188q-60 0 -88.5 45t-28.5 111t28.5 111t88.5 45q35 0 61.5 -17.5t67.5 -68.5l31 -39q40 51 86 88t82 37q60 0 88.5 -44t28.5 -112q0 -66 -28.5 -111t-88.5 -45q-36 0 -66.5 18.5t-66.5 63.5l-35 43q-93 -125 -160 -125zM465 234q70 0 70 110q0 109 -70 109
q-26 0 -67.5 -31.5t-77.5 -73.5l39 -47q57 -67 106 -67zM137 234q58 0 136 106l-35 43q-58 70 -101 70q-70 0 -70 -109q0 -52 20 -81t50 -29z" />
    <glyph glyph-name="integral" unicode="&#x222b;" horiz-adv-x="344" 
d="M-39 -188v79h62q52 0 73 25.5t21 79.5v574q0 87 48.5 133.5t131.5 46.5h62v-78h-70q-52 0 -73 -24t-21 -78v-578q0 -87 -44.5 -133.5t-127.5 -46.5h-62z" />
    <glyph glyph-name="approxequal" unicode="&#x2248;" 
d="M94 371v74q16 29 47 50t70 21q37 0 109 -33.5t98 -33.5q39 0 63 16.5t42 50.5h8v-75q-16 -29 -47 -49.5t-70 -20.5q-37 0 -109 33.5t-98 33.5q-63 0 -105 -67h-8zM94 152v75q16 29 47 49.5t70 20.5q37 0 109 -33.5t98 -33.5q39 0 63 16.5t42 50.5h8v-74q-16 -29 -47 -50
t-70 -21q-37 0 -109 33.5t-98 33.5q-63 0 -105 -67h-8z" />
    <glyph glyph-name="notequal" unicode="&#x2260;" 
d="M184 94v11l39 114h-129v78h155l48 141h-203v78h230l43 125h74v-12l-39 -113h129v-78h-156l-48 -141h204v-78h-230l-43 -125h-74z" />
    <glyph glyph-name="lessequal" unicode="&#x2264;" 
d="M523 105l-429 223v78l429 223h8v-82l-359 -180l359 -179v-83h-8zM94 -78v78h437v-78h-437z" />
    <glyph glyph-name="greaterequal" unicode="&#x2265;" 
d="M94 105v83l359 179l-359 180v82h8l429 -223v-78l-429 -223h-8zM94 -78v78h437v-78h-437z" />
    <glyph glyph-name="lozenge" unicode="&#x25ca;" horiz-adv-x="703" 
d="M352 0l-321 375l321 375l320 -375zM352 121l214 254l-214 254l-215 -254z" />
    <glyph glyph-name="dotlessj" unicode="&#xf6be;" horiz-adv-x="297" 
d="M-55 -188v79h39q74 0 103.5 38t29.5 118v422h-94v78h180v-484q0 -130 -56 -190.5t-178 -60.5h-24z" />
    <glyph glyph-name="commaaccent" unicode="&#xf6c3;" horiz-adv-x="129" 
d="M0 -195l43 156h86v-48l-70 -108h-59z" />
    <glyph glyph-name="a.superior" horiz-adv-x="507" 
d="M185 323q-60 0 -97 36t-37 109v65q0 97 73.5 157t174.5 60h128v-421h-74v78l-34 -29q-60 -55 -134 -55zM326 449l27 26v215h-54q-77 0 -126 -42.5t-49 -114.5v-65q0 -85 74 -85q51 0 128 66z" />
    <glyph glyph-name="b.superior" horiz-adv-x="507" 
d="M81 329v577h73v-234l34 30q63 54 134 54q60 0 97.5 -35.5t37.5 -108.5v-66q0 -96 -74.5 -156.5t-174.5 -60.5h-127zM182 630l-28 -25v-215h54q77 0 126 42t49 114v66q0 84 -74 84q-55 0 -127 -66z" />
    <glyph glyph-name="c.superior" horiz-adv-x="430" 
d="M252 323q-93 0 -147 46t-54 135v72q0 83 60 131.5t141 48.5q77 0 135 -29v-109h-68v66q-26 12 -67 12q-55 0 -91.5 -29.5t-36.5 -90.5v-72q0 -58 33.5 -89.5t94.5 -31.5q69 0 121 27h7v-59q-58 -28 -128 -28z" />
    <glyph glyph-name="d.superior" horiz-adv-x="507" 
d="M185 323q-60 0 -97 36t-37 109v65q0 97 73.5 157t174.5 60h54v156h74v-577h-74v78l-34 -29q-60 -55 -134 -55zM326 449l27 26v215h-54q-77 0 -126 -42.5t-49 -114.5v-65q0 -85 74 -85q51 0 128 66z" />
    <glyph glyph-name="e.superior" horiz-adv-x="457" 
d="M252 323q-91 0 -146 41t-55 127v85q0 83 56.5 131.5t144.5 48.5q74 0 117.5 -29.5t43.5 -90.5q0 -56 -38.5 -88t-108.5 -32h-142v-25q0 -108 128 -108q65 0 128 27h7v-59q-59 -28 -135 -28zM124 576v-6h121q53 0 73.5 16t20.5 50q0 60 -87 60q-128 0 -128 -120z" />
    <glyph glyph-name="f.superior" horiz-adv-x="296" 
d="M101 329v361h-74v60h74v19q0 66 41.5 101.5t112.5 35.5h54v-59h-54q-44 0 -62 -18.5t-18 -59.5v-19h121v-60h-121v-361h-74z" />
    <glyph glyph-name="g.superior" horiz-adv-x="507" 
d="M91 184v61h80q97 0 139.5 30t42.5 103v18l-7 -3q-3 -1 -15.5 -7t-18.5 -8t-18 -7t-21 -7l-22 -5t-26 -4t-27 -1q-65 0 -106 38.5t-41 114.5v26q0 101 67.5 159t166.5 58h142v-367q0 -105 -65 -152t-191 -47h-80zM339 443l14 6v241h-68q-75 0 -118 -42t-43 -115v-26
q0 -94 88 -94q60 0 127 30z" />
    <glyph glyph-name="h.superior" horiz-adv-x="527" 
d="M377 329v283q0 84 -74 84q-49 0 -121 -66l-28 -25v-276h-73v577h73v-234l34 30q61 54 134 54q128 0 128 -144v-283h-73z" />
    <glyph glyph-name="i.superior" horiz-adv-x="249" 
d="M94 834v72h74v-72h-74zM94 329v361h-80v60h154v-421h-74z" />
    <glyph glyph-name="j.superior" horiz-adv-x="255" 
d="M101 834v72h74v-72h-74zM-47 184v61h33q64 0 89.5 29.5t25.5 90.5v325h-80v60h154v-372q0 -100 -48.5 -147t-153.5 -47h-20z" />
    <glyph glyph-name="k.superior" horiz-adv-x="464" 
d="M81 329v577h73v-318h47l155 162h84v-6l-178 -183l185 -226v-6h-84l-162 198h-47v-198h-73z" />
    <glyph glyph-name="l.superior" horiz-adv-x="235" 
d="M81 329v518h-81v59h154v-577h-73z" />
    <glyph glyph-name="m.superior" horiz-adv-x="823" 
d="M81 329v421h73v-78l34 30q61 54 134 54q94 0 119 -78h16l27 24q61 54 134 54q128 0 128 -144v-283h-74v283q0 84 -74 84q-47 0 -121 -66l-27 -25v-276h-73v283q0 84 -74 84q-49 0 -121 -66l-28 -25v-276h-73z" />
    <glyph glyph-name="n.superior" horiz-adv-x="527" 
d="M81 329v421h73v-78l34 30q61 54 134 54q128 0 128 -144v-283h-73v283q0 84 -74 84q-49 0 -121 -66l-28 -25v-276h-73z" />
    <glyph glyph-name="o.superior" horiz-adv-x="504" 
d="M252 323q-205 0 -205 223q0 97 52 153.5t153 56.5q104 0 154.5 -55.5t50.5 -154.5q0 -106 -51.5 -164.5t-153.5 -58.5zM252 383q131 0 131 163q0 74 -29.5 112t-101.5 38t-101.5 -38t-29.5 -112q0 -163 131 -163z" />
    <glyph glyph-name="p.superior" horiz-adv-x="507" 
d="M81 184v566h73v-78l34 30q63 54 134 54q60 0 97.5 -35.5t37.5 -108.5v-66q0 -96 -74.5 -156.5t-174.5 -60.5h-54v-145h-73zM182 630l-28 -25v-215h54q77 0 126 42t49 114v66q0 84 -74 84q-55 0 -127 -66z" />
    <glyph glyph-name="q.superior" horiz-adv-x="507" 
d="M353 184v223l-34 -29q-60 -55 -134 -55q-60 0 -97 36t-37 109v65q0 97 73.5 157t174.5 60h128v-566h-74zM326 449l27 26v215h-54q-77 0 -126 -42.5t-49 -114.5v-65q0 -85 74 -85q51 0 128 66z" />
    <glyph glyph-name="r.superior" horiz-adv-x="343" 
d="M81 329v421h73v-93l8 10q59 83 137 83h30v-72h-33q-55 0 -88 -31l-54 -47v-271h-73z" />
    <glyph glyph-name="s.superior" horiz-adv-x="443" 
d="M201 323q-80 0 -138 15v60h7q69 -15 131 -15q114 0 114 66q0 46 -73 61l-71 14q-110 24 -110 112q0 56 48.5 88t132.5 32q58 0 124 -12v-60h-7q-70 12 -117 12q-107 0 -107 -60q0 -13 4 -22t14.5 -14.5t17 -7.5t24.5 -6l64 -14q63 -13 97 -40t34 -83q0 -65 -53.5 -95.5
t-135.5 -30.5z" />
    <glyph glyph-name="t.superior" horiz-adv-x="350" 
d="M262 329q-161 0 -161 146v215h-74v60h74v97h74v-97h134v-60h-134v-205q0 -57 21.5 -76t78.5 -19h47v-61h-60z" />
    <glyph glyph-name="u.superior" horiz-adv-x="527" 
d="M205 323q-128 0 -128 145v282h74v-282q0 -85 74 -85q21 0 48 14t38 22.5t35 29.5l27 26v275h74v-421h-74v78l-34 -29q-62 -55 -134 -55z" />
    <glyph glyph-name="v.superior" horiz-adv-x="450" 
d="M182 329q-44 34 -89.5 124.5t-45.5 188.5v108h74v-108q0 -84 31 -155.5t73 -108.5q42 37 73 108.5t31 155.5v108h74v-108q0 -97 -48 -187.5t-93 -125.5h-80z" />
    <glyph glyph-name="w.superior" horiz-adv-x="651" 
d="M162 329q-42 37 -78.5 125t-36.5 188v108h74v-108q0 -84 25 -155.5t59 -108.5q34 37 59 108.5t25 155.5v108h74v-108q0 -85 25 -156t59 -108q34 37 59 108.5t25 155.5v108h73v-108q0 -100 -36.5 -188t-77.5 -125h-80q-21 23 -49 69t-35 77q-8 -32 -35.5 -78.5
t-48.5 -67.5h-80z" />
    <glyph glyph-name="x.superior" horiz-adv-x="430" 
d="M21 329v6l155 204l-149 205v6h80l112 -153l117 153h74v-6l-152 -200l152 -209v-6h-81l-115 158l-120 -158h-73z" />
    <glyph glyph-name="y.superior" horiz-adv-x="527" 
d="M111 184v61h80q95 0 138.5 35.5t43.5 109.5v23l-7 -3q-69 -32 -147 -32q-61 0 -101.5 36.5t-40.5 112.5v223h74v-223q0 -90 87 -90q71 0 135 31v282h74v-354q0 -212 -256 -212h-80z" />
    <glyph glyph-name="z.superior" horiz-adv-x="450" 
d="M47 329v54q64 57 143 147.5t122 159.5h-251v60h335v-54q-23 -55 -111.5 -159t-143.5 -147h262v-61h-356z" />
    <glyph glyph-name="zero.numerator" horiz-adv-x="508" 
d="M254 320q-87 0 -128 53.5t-41 163.5q0 111 41 164.5t128 53.5q169 0 169 -218q0 -217 -169 -217zM254 381q51 0 72 35.5t21 120.5q0 86 -21 122t-72 36q-52 0 -73 -36t-21 -122q0 -83 21 -119.5t73 -36.5z" />
    <glyph glyph-name="one.numerator" horiz-adv-x="508" 
d="M245 324v353l-126 -44h-16v60l167 57h51v-426h-76z" />
    <glyph glyph-name="two.numerator" horiz-adv-x="508" 
d="M100 324v62q0 92 99 138l56 27q39 18 55 33.5t16 44.5q0 35 -20.5 48t-62.5 13h-134v60h134q159 0 159 -121q0 -78 -111 -128l-56 -25q-36 -16 -48 -38t-12 -53h231v-61h-306z" />
    <glyph glyph-name="three.numerator" horiz-adv-x="508" 
d="M104 324v61h133q99 0 99 71q0 64 -93 64h-89v59h119q53 27 53 62q0 28 -21 37.5t-68 9.5h-133v62h139q159 0 159 -99q0 -32 -10.5 -52t-42.5 -39q63 -32 63 -104q0 -63 -48 -97.5t-127 -34.5h-133z" />
    <glyph glyph-name="four.numerator" horiz-adv-x="508" 
d="M296 324v95h-222v45q93 131 121 286h78q-29 -143 -114 -273h137v120h75v-120h62v-58h-62v-95h-75z" />
    <glyph glyph-name="five.numerator" horiz-adv-x="508" 
d="M104 324v61h139q88 0 88 82q0 39 -20.5 54t-67.5 15h-129v214h273v-60h-201v-93h57q164 0 164 -130q0 -63 -40.5 -103t-123.5 -40h-139z" />
    <glyph glyph-name="six.numerator" horiz-adv-x="508" 
d="M254 320q-159 0 -159 140v129q0 71 50.5 116t147.5 45h78v-60h-78q-123 0 -123 -101v-14q55 22 94 22q77 0 112.5 -34t35.5 -103q0 -64 -38 -102t-120 -38zM254 381q40 0 61 18t21 61q0 42 -17 59t-55 17q-49 0 -94 -17v-59q0 -79 84 -79z" />
    <glyph glyph-name="seven.numerator" horiz-adv-x="508" 
d="M186 324v60q0 164 144 308h-245v58h338v-45q-77 -76 -119 -149t-42 -164v-68h-76z" />
    <glyph glyph-name="eight.numerator" horiz-adv-x="508" 
d="M243 320q-153 0 -153 122q0 36 15.5 57t47.5 41l11 7q-64 32 -64 96q0 59 40.5 85.5t102.5 26.5h21q142 0 142 -112q0 -30 -14 -49.5t-43 -42.5l-5 -4q37 -17 55 -40.5t18 -64.5q0 -58 -43.5 -90t-109.5 -32h-21zM248 383h10q84 0 84 59q0 42 -52 60q-44 16 -60 20
l-22 -13q-43 -26 -43 -67q0 -35 21.5 -47t61.5 -12zM278 569l10 8q15 12 22.5 19t14 19.5t6.5 27.5q0 30 -17 41.5t-50 11.5h-21q-34 0 -51 -11.5t-17 -41.5q0 -21 10 -33t35 -20z" />
    <glyph glyph-name="nine.numerator" horiz-adv-x="508" 
d="M135 324v61h78q123 0 123 100v13q-48 -20 -93 -20q-148 0 -148 136q0 63 39.5 102t119.5 39q78 0 118 -36.5t40 -104.5v-129q0 -71 -50.5 -116t-148.5 -45h-78zM243 538q42 0 93 19v57q0 81 -82 81q-84 0 -84 -81q0 -41 17 -58.5t56 -17.5z" />
    <glyph glyph-name="zero.denominator" horiz-adv-x="508" 
d="M254 -4q-87 0 -128 53t-41 164q0 110 41 164t128 54q169 0 169 -218q0 -217 -169 -217zM254 57q51 0 72 35.5t21 120.5q0 86 -21 122t-72 36q-52 0 -73 -36t-21 -122q0 -83 21 -119.5t73 -36.5z" />
    <glyph glyph-name="one.denominator" horiz-adv-x="508" 
d="M245 0v353l-126 -44h-16v60l167 57h51v-426h-76z" />
    <glyph glyph-name="two.denominator" horiz-adv-x="508" 
d="M100 0v62q0 92 99 138l56 27q39 18 55 33.5t16 44.5q0 35 -20.5 48t-62.5 13h-134v60h134q159 0 159 -121q0 -78 -111 -128l-56 -26q-36 -16 -48 -37.5t-12 -52.5h231v-61h-306z" />
    <glyph glyph-name="three.denominator" horiz-adv-x="508" 
d="M104 0v61h133q99 0 99 71q0 35 -23 49t-70 14h-89v60h119q53 26 53 61q0 28 -21 38t-68 10h-133v62h139q159 0 159 -99q0 -32 -10.5 -52t-42.5 -40q63 -30 63 -103q0 -63 -48 -97.5t-127 -34.5h-133z" />
    <glyph glyph-name="four.denominator" horiz-adv-x="508" 
d="M296 0v95h-222v45q93 131 121 286h78q-30 -144 -114 -274h137v120h75v-120h62v-57h-62v-95h-75z" />
    <glyph glyph-name="five.denominator" horiz-adv-x="508" 
d="M104 0v61h139q88 0 88 82q0 38 -20.5 53.5t-67.5 15.5h-129v214h273v-60h-201v-94h57q164 0 164 -129q0 -63 -40.5 -103t-123.5 -40h-139z" />
    <glyph glyph-name="six.denominator" horiz-adv-x="508" 
d="M254 -4q-159 0 -159 140v129q0 71 50.5 116t147.5 45h78v-60h-78q-123 0 -123 -101v-14q52 21 94 21q78 0 113 -33.5t35 -102.5q0 -64 -38 -102t-120 -38zM254 57q40 0 61 18t21 61q0 41 -17 58.5t-55 17.5q-51 0 -94 -18v-58q0 -79 84 -79z" />
    <glyph glyph-name="seven.denominator" horiz-adv-x="508" 
d="M186 0v60q0 164 144 308h-245v58h338v-45q-77 -76 -119 -149t-42 -165v-67h-76z" />
    <glyph glyph-name="eight.denominator" horiz-adv-x="508" 
d="M243 -4q-153 0 -153 122q0 36 15 56.5t48 41.5l11 7q-64 32 -64 95q0 59 40.5 86t102.5 27h21q142 0 142 -113q0 -30 -14 -49t-43 -42l-5 -4q37 -17 55 -40.5t18 -64.5q0 -58 -43.5 -90t-109.5 -32h-21zM248 59h10q40 0 62 12.5t22 46.5q0 42 -52 60l-60 20l-22 -13
q-43 -26 -43 -67q0 -35 21 -47t62 -12zM278 245l10 8q22 16 32.5 30t10.5 35q0 30 -17 42t-50 12h-21q-33 0 -50.5 -12t-17.5 -42q0 -20 10.5 -32.5t34.5 -19.5z" />
    <glyph glyph-name="nine.denominator" horiz-adv-x="508" 
d="M135 0v61h78q123 0 123 100v13q-50 -21 -93 -21q-148 0 -148 137q0 63 39.5 102t119.5 39q78 0 118 -36.5t40 -104.5v-129q0 -71 -50.5 -116t-148.5 -45h-78zM243 214q39 0 93 18v58q0 81 -82 81q-84 0 -84 -81q0 -41 17 -58.5t56 -17.5z" />
    <glyph glyph-name="Gcedilla" horiz-adv-x="695" 
d="M406 -8q-165 0 -254.5 92.5t-89.5 243.5v102q0 158 99.5 243t260.5 85q54 0 111.5 -11t83.5 -24v-78h-8q-101 31 -187 31q-121 0 -193.5 -58.5t-72.5 -187.5v-102q0 -122 66 -188t184 -66h31q49 0 94 12v199h-156v82h242v-336q-22 -12 -79.5 -25.5t-100.5 -13.5h-31z
M307 -195l43 156h86v-48l-71 -108h-58z" />
    <glyph glyph-name="gcedilla" horiz-adv-x="590" 
d="M105 -188v79h94q113 0 162 39t49 133v23l-18 -10q-88 -45 -162 -45t-122.5 51t-48.5 148v36q0 130 78.5 205.5t194.5 75.5h164v-477q0 -136 -75.5 -197t-221.5 -61h-94zM395 148l15 8v313h-78q-87 0 -137 -54.5t-50 -148.5v-36q0 -121 101 -121q69 0 149 39zM391 750
l-43 -156h-86v47l70 109h59z" />
    <glyph glyph-name="Kcedilla" horiz-adv-x="641" 
d="M94 0v750h94v-320h46l285 320h98v-8l-308 -347l316 -387v-8h-105l-290 352h-42v-352h-94zM240 -195l43 156h86v-48l-70 -108h-59z" />
    <glyph glyph-name="kcedilla" horiz-adv-x="539" 
d="M94 0v750h86v-414h54l180 211h98v-8l-207 -238l215 -293v-8h-98l-188 258h-54v-258h-86zM197 -195l43 156h86v-48l-70 -108h-59z" />
    <glyph glyph-name="Lcedilla" horiz-adv-x="516" 
d="M297 0q-100 0 -151.5 51.5t-51.5 151.5v547h94v-555q0 -113 101 -113h211v-82h-203zM232 -195l43 156h86v-48l-70 -108h-59z" />
    <glyph glyph-name="lcedilla" horiz-adv-x="273" 
d="M94 0v672h-94v78h180v-750h-86zM49 -195l43 156h86v-48l-71 -108h-58z" />
    <glyph glyph-name="Ncedilla" horiz-adv-x="750" 
d="M94 0v750h62l407 -555v555h93v-750h-62l-406 555v-555h-94zM291 -195l43 156h86v-48l-70 -108h-59z" />
    <glyph glyph-name="ncedilla" horiz-adv-x="613" 
d="M94 0v547h86v-102l39 39q71 71 156 71q148 0 148 -188v-367h-86v367q0 110 -85 110q-55 0 -141 -86l-31 -32v-359h-86zM227 -195l43 156h85v-48l-70 -108h-58z" />
    <glyph glyph-name="Rcedilla" horiz-adv-x="656" 
d="M94 0v750h242q117 0 171.5 -54.5t54.5 -172.5q0 -86 -35 -136t-101 -78q60 -55 113 -148.5t70 -152.5v-8h-97q-13 52 -70 146t-106 135h-149v-281h-93zM187 363h125q157 0 157 160q0 81 -31.5 113t-109.5 32h-141v-305zM244 -195l43 156h86v-48l-70 -108h-59z" />
    <glyph glyph-name="rcedilla" horiz-adv-x="398" 
d="M94 0v547h86v-121l8 12q71 109 160 109h35v-94h-39q-61 0 -102 -39l-62 -62v-352h-86zM49 -195l43 156h86v-48l-71 -108h-58z" />
    <glyph glyph-name="caronquoteleft" horiz-adv-x="129" 
d="M129 750l-43 -156h-86v47l70 109h59z" />
    <glyph glyph-name="caronquoteright" horiz-adv-x="129" 
d="M0 594l43 156h86v-47l-70 -109h-59z" />
    </font>
</defs>
</svg>
